<svg version="1.1" xmlns="http://www.w3.org/2000/svg" width="1024" height="1024">
<path d="M0 0 C337.92 0 675.84 0 1024 0 C1024 337.92 1024 675.84 1024 1024 C686.08 1024 348.16 1024 0 1024 C0 686.08 0 348.16 0 0 Z " fill="#C5C5C5" transform="translate(0,0)"/>
<path d="M0 0 C99.99 0 199.98 0 303 0 C303 28.71 303 57.42 303 87 C300.00844562 83.26055702 297.65378126 79.88998846 295.25 75.8125 C292.05910593 70.47629403 288.50634939 65.66996053 284.46875 60.92578125 C283 59 283 59 283 57 C282.34 57 281.68 57 281 57 C279.99458509 55.89524769 279.04636172 54.73826757 278.125 53.5625 C265.54538132 38.92064875 246.96199252 31.00763804 228.88378906 25.578125 C227.2026731 25.06219931 225.53910399 24.48987486 223.87890625 23.91015625 C201.62024039 16.87315605 164.82332342 17.47102379 144 28 C136.1659234 32.77166484 131.59707789 40.87182603 129.35193443 49.59759903 C127.89958734 55.7351002 127.57812837 61.52727964 127.61904907 67.81341553 C127.6143691 68.93944002 127.60968913 70.06546452 127.60486734 71.22561097 C127.59298643 74.96530897 127.60234781 78.7046358 127.61181641 82.44433594 C127.60774755 85.13933365 127.60251154 87.83430656 127.59588623 90.52929688 C127.58259606 97.07029655 127.58540599 103.61119252 127.59412415 110.15219614 C127.60092127 115.47405417 127.60180868 120.79588331 127.5985527 126.11774445 C127.59786316 127.25737583 127.59786316 127.25737583 127.59715968 128.42003007 C127.59620041 129.96389197 127.59522777 131.50775386 127.5942419 133.05161574 C127.58570121 147.50584894 127.59550014 161.96002493 127.611643 176.41424873 C127.62503414 188.78693669 127.62272547 201.15954014 127.60888672 213.53222656 C127.59278875 227.93134266 127.58653643 242.33040864 127.59572351 256.72953248 C127.59667906 258.26868581 127.59762217 259.80783915 127.5985527 261.34699249 C127.59901553 262.10409568 127.59947836 262.86119887 127.59995521 263.64124458 C127.60253329 268.94785124 127.59819953 274.25442583 127.59111404 279.56102753 C127.58265134 286.04105829 127.58507799 292.52098022 127.60095628 299.00099871 C127.60877716 302.30026894 127.61039059 305.59932351 127.60200882 308.89859772 C127.09177847 338.32243021 127.09177847 338.32243021 140.5390625 363.6015625 C152.88948637 375.42362599 178.93545809 371.53668894 194.74256897 371.25059509 C229.91953885 370.28098994 259.12889025 358.42290406 285 335 C285.86109375 334.23429687 286.7221875 333.46859375 287.609375 332.6796875 C302.50325778 318.68702693 312.98855486 299.60722741 321 281 C326.61 281 332.22 281 338 281 C336.87426655 287.75440067 336.87426655 287.75440067 335.984375 291.109375 C335.78763184 291.85501709 335.59088867 292.60065918 335.38818359 293.36889648 C335.17758301 294.15466064 334.96698242 294.9404248 334.75 295.75 C334.53037598 296.57765869 334.31075195 297.40531738 334.08447266 298.25805664 C332.35186805 304.75871514 330.55255662 311.24009494 328.73535156 317.7175293 C327.58945022 321.81824498 326.50360418 325.92404233 325.5 330.0625 C323.99546362 336.19831877 322.1922942 342.23871798 320.39453125 348.29296875 C314.97985928 366.41709484 314.97985928 366.41709484 310.54296875 384.796875 C310 387 310 387 309 388 C307.36317353 388.09714351 305.72212586 388.12371573 304.0824194 388.12304783 C302.47532916 388.1260344 302.47532916 388.1260344 300.83577245 388.12908131 C299.64416417 388.12616847 298.45255588 388.12325563 297.22483826 388.12025452 C295.97033326 388.12110894 294.71582826 388.12196337 293.42330796 388.12284368 C289.92527275 388.125091 286.42726787 388.12106415 282.92923653 388.11606562 C279.16302941 388.11176468 275.39682412 388.11320729 271.63061523 388.1139679 C265.10011321 388.11449336 258.56962115 388.11134424 252.03912163 388.10573006 C242.59700646 388.09761806 233.15489613 388.09500015 223.71277786 388.09374207 C208.39518576 388.09155107 193.07759898 388.08488971 177.76000977 388.07543945 C162.8765465 388.06626656 147.99308467 388.05918513 133.10961914 388.05493164 C132.19287422 388.05466892 131.2761293 388.05440619 130.33160423 388.05413551 C125.732765 388.05283051 121.13392576 388.05156679 116.53508651 388.05032361 C78.35672059 388.03994952 40.17836073 388.02225582 2 388 C2 383.05 2 378.1 2 373 C3.65386719 372.89042969 5.30773437 372.78085937 7.01171875 372.66796875 C31.42498404 371.66890304 31.42498404 371.66890304 51.6875 359.5 C60.97832182 348.21525751 62.31729458 332.61210612 62.25396729 318.55276489 C62.25864726 316.92286474 62.25864726 316.92286474 62.26342177 315.2600373 C62.27133775 311.65393294 62.26510317 308.04799986 62.25878906 304.44189453 C62.2615018 301.84218244 62.26506431 299.24247111 62.26940918 296.64276123 C62.27826646 290.33506415 62.27639742 284.02741487 62.2705839 277.71971597 C62.26605211 272.58853954 62.26546104 267.45737644 62.26763153 262.32619858 C62.267938 261.59362049 62.26824446 260.8610424 62.26856022 260.10626497 C62.26919972 258.61764161 62.26984815 257.12901826 62.2705054 255.64039491 C62.27619817 241.70604765 62.26966779 227.77172678 62.25890467 213.83738385 C62.24997387 201.90638722 62.25151936 189.97542952 62.26074219 178.04443359 C62.27146995 164.16026955 62.27564501 150.27612859 62.26951766 136.39196098 C62.26888062 134.90845164 62.26825188 133.4249423 62.26763153 131.94143295 C62.26732298 131.21168944 62.26701443 130.48194594 62.26669653 129.73008899 C62.26497681 124.61190468 62.26786909 119.49373515 62.27259064 114.37555313 C62.27881916 107.47259858 62.27431969 100.56971834 62.26280212 93.66677094 C62.26016922 91.14092759 62.26089707 88.61507804 62.26532745 86.08923721 C63.13009673 57.45472974 63.13009673 57.45472974 50.2578125 32.97265625 C39.82205633 23.85491081 25.52729333 22.57534235 12.25 22.3125 C11.0640625 22.27833984 9.878125 22.24417969 8.65625 22.20898438 C5.7711416 22.12754986 2.88558977 22.06207871 0 22 C0 14.74 0 7.48 0 0 Z " fill="#EDEEED" transform="translate(355,314)"/>
<path d="M0 0 C39.68686133 -0.29767874 79.37357692 -0.52668731 119.06133198 -0.66384928 C123.74881624 -0.6801081 128.43629831 -0.69693433 133.1237793 -0.71411133 C134.05695631 -0.71752136 134.99013331 -0.7209314 135.95158841 -0.72444477 C151.05353849 -0.7809832 166.15484401 -0.88346557 181.25641195 -1.00298635 C196.75680494 -1.12463871 212.25686081 -1.19678113 227.75771159 -1.22315043 C237.31986596 -1.24097208 246.88019848 -1.29721322 256.44179185 -1.40291407 C263.00227256 -1.47173559 269.56181419 -1.49237925 276.1226295 -1.47551791 C279.90641362 -1.46720483 283.68701994 -1.47976184 287.47023582 -1.54967117 C311.33560015 -1.96897743 311.33560015 -1.96897743 317.08566856 2.77141762 C319.99920827 5.83531706 321.93870004 9.31714656 324 13 C325.80239394 15.2121667 327.72084506 17.23838208 329.6875 19.3125 C330.51636719 20.21613281 331.34523438 21.11976563 332.19921875 22.05078125 C332.79347656 22.69402344 333.38773438 23.33726562 334 24 C333.67 24.99 333.34 25.98 333 27 C332.21625 26.979375 331.4325 26.95875 330.625 26.9375 C328.01885039 26.81315937 328.01885039 26.81315937 326 28 C326 26.02 326 24.04 326 22 C325.34 22 324.68 22 324 22 C323.97468516 29.35065985 323.95714798 36.7013085 323.94506836 44.05200195 C323.94003359 46.55363383 323.93320539 49.05526276 323.92456055 51.55688477 C323.91245762 55.14860766 323.90676318 58.74029172 323.90234375 62.33203125 C323.89718246 63.45398392 323.89202118 64.57593658 323.88670349 65.73188782 C323.88662796 66.77274033 323.88655243 67.81359283 323.88647461 68.88598633 C323.884254 69.80309891 323.88203339 70.72021149 323.87974548 71.66511536 C323.90388642 74.15668165 323.90388642 74.15668165 325 77 C324.91120644 78.56677673 324.75567884 80.13014469 324.5625 81.6875 C323.95585241 87.35207189 323.95570553 92.91843767 324.12524414 98.60424805 C324.19066284 102.33219897 324.13012252 103.80481622 322 107 C315.07329292 108.40106408 305.12910044 107.94934501 299.109375 104.19921875 C297.09823154 101.90699028 295.53970614 99.62876658 294 97 C293.03640986 95.67602203 292.05769523 94.36288843 291.0625 93.0625 C290.58554687 92.4128125 290.10859375 91.763125 289.6171875 91.09375 C286.33093261 86.83908183 282.66128124 82.93112442 279 79 C278.32324219 78.24589844 277.64648438 77.49179687 276.94921875 76.71484375 C272.51496061 71.97995794 267.74077969 68.22414317 262.375 64.625 C261.75351074 64.20798828 261.13202148 63.79097656 260.49169922 63.36132812 C256.4704721 60.74939464 252.45451394 58.77493486 248 57 C248 56.34 248 55.68 248 55 C247.33226562 54.89816406 246.66453125 54.79632813 245.9765625 54.69140625 C242.9814866 53.99569964 240.26847329 52.94860804 237.43041992 51.77832031 C231.02231796 49.15692785 225.75772538 47.39582117 218.73339844 47.94018555 C215.97491659 48.0005489 213.74394059 47.63151316 211.05859375 47.03125 C204.31906597 45.73438175 197.71965145 45.70598295 190.875 45.75 C189.05935547 45.73839844 189.05935547 45.73839844 187.20703125 45.7265625 C176.72635094 45.74937138 167.86957748 46.40046177 159.875 53.75 C155.90743881 57.85015321 154.27445028 62.47738213 153 68 C152.67 68.33 152.34 68.66 152 69 C150.95987998 75.33785908 150.85438632 81.5569535 150.8671875 87.96875 C150.86582291 89.02680847 150.86445831 90.08486694 150.86305237 91.17498779 C150.86102976 94.61669051 150.86733867 98.05830608 150.875 101.5 C150.87621857 102.67075073 150.87743713 103.84150146 150.87869263 105.04772949 C150.89830368 121.1189228 151.04886406 137.18337725 151.4375 153.25 C151.4570575 154.10924072 151.47661499 154.96848145 151.49676514 155.85375977 C151.55295855 158.24125774 151.6165308 160.6284104 151.68359375 163.015625 C151.7086776 164.06795319 151.7086776 164.06795319 151.73426819 165.14154053 C151.57802173 168.35153241 151.57802173 168.35153241 153 171 C153.09873816 172.99799572 153.12971799 174.99957158 153.125 177 C153.12757813 178.093125 153.13015625 179.18625 153.1328125 180.3125 C153 183 153 183 152 184 C150.9070463 191.49525762 150.80767865 199.11121499 150.68359375 206.671875 C150.66272202 207.77173233 150.64185028 208.87158966 150.62034607 210.004776 C150.55440339 213.58644945 150.49528319 217.16818616 150.4375 220.75 C150.41665344 221.98430756 150.39580688 223.21861511 150.37432861 224.49032593 C149.85164885 255.7858396 149.5892821 287.0831354 150.4375 318.375 C150.4570575 319.12963531 150.47661499 319.88427063 150.49676514 320.66177368 C150.55286988 322.74090709 150.61642794 324.81963534 150.68359375 326.8984375 C150.72025146 328.06036621 150.75690918 329.22229492 150.79467773 330.41943359 C150.71361074 332.92987594 150.71361074 332.92987594 152 334 C152.32381508 336.05769762 152.60887747 338.12154877 152.875 340.1875 C153.60474284 345.04716428 154.33107221 348.80597062 157 353 C157.68642578 354.16402344 157.68642578 354.16402344 158.38671875 355.3515625 C160.48568882 358.83055099 160.48568882 358.83055099 163 362 C164.32 362 165.64 362 167 362 C167.66 363.32 168.32 364.64 169 366 C170.65 366 172.3 366 174 366 C173.67 366.99 173.34 367.98 173 369 C205.86187429 371.78399897 205.86187429 371.78399897 238 366 C238.99990967 365.68651611 238.99990967 365.68651611 240.02001953 365.36669922 C266.29579215 356.99682176 288.87401713 339.2216044 305 317 C305.38220703 316.47776855 305.76441406 315.95553711 306.15820312 315.41748047 C313.52183897 305.24434331 318.89741571 294.45000195 324 283 C345.07589188 280.77505086 345.07589188 280.77505086 351.28125 284.29345703 C354.87398024 287.45113009 357.41974966 291.20827676 359.86914062 295.28662109 C361.56543216 297.8566932 363.81330457 299.84723605 366 302 C366.33 302.99 366.66 303.98 367 305 C367.99 305.33 368.98 305.66 370 306 C370 306.66 370 307.32 370 308 C369.34 308 368.68 308 368 308 C368 307.34 368 306.68 368 306 C367.030625 305.731875 366.06125 305.46375 365.0625 305.1875 C364.051875 304.795625 363.04125 304.40375 362 304 C361.67 303.01 361.34 302.02 361 301 C355.20825021 305.99288775 353.74367954 312.28521401 352.4375 319.5625 C351.59559232 324.20964016 350.57522943 328.54743615 349 333 C348.32741333 335.33163378 347.66152556 337.6652039 347 340 C346.78472656 340.68320312 346.56945312 341.36640625 346.34765625 342.0703125 C344.40642652 348.26126136 342.90233337 354.50842095 341.53369141 360.84716797 C340.48417409 365.52921153 338.97810669 369.62790436 337 374 C335.79294747 377.62115758 335 380.49108473 335 384.3125 C335 385.199375 335 386.08625 335 387 C334.34 387.66 333.68 388.32 333 389 C332.16753347 391.11753376 332.16753347 391.11753376 331.5 393.5625 C331.24347656 394.45195313 330.98695313 395.34140625 330.72265625 396.2578125 C329.86468057 399.51348237 329.15749986 402.78302453 328.52734375 406.08984375 C328 408 328 408 326 411 C323.47969056 411.25504159 321.20762137 411.3245468 318.69140625 411.2578125 C317.96888168 411.25119598 317.24635712 411.24457947 316.50193787 411.23776245 C314.18836281 411.21431812 311.87573533 411.17061647 309.5625 411.125 C307.25294821 411.08992307 304.94345169 411.05911128 302.6337738 411.03366089 C301.19574699 411.01670631 299.75777685 410.99358241 298.31996155 410.96365356 C295.24304947 410.91774188 292.9471808 411.0176064 290 412 C290 411.34 290 410.68 290 410 C288.86947645 410.16265854 287.7389529 410.32531708 286.57417107 410.49290466 C281.97240723 411.06463799 277.44538214 411.13384127 272.81326294 411.11352539 C271.92170781 411.11367425 271.03015268 411.11382311 270.11158073 411.11397648 C267.14223368 411.11328535 264.1729495 411.10545856 261.20361328 411.09765625 C259.06777481 411.09573599 256.93193588 411.0942727 254.7960968 411.0932312 C250.2066476 411.09007586 245.61721691 411.08381603 241.02777481 411.07516479 C233.77632028 411.06163286 226.52487187 411.05574668 219.27340698 411.05102539 C203.89059644 411.03993392 188.50780061 411.02038086 173.125 411 C156.4976571 410.97799178 139.8703201 410.95742445 123.24296558 410.94658184 C116.02800307 410.94158743 108.81306839 410.93171077 101.59811711 410.91815186 C97.12173908 410.91071823 92.64536493 410.90738193 88.16898155 410.9051857 C86.08638847 410.90330615 84.00379616 410.8996904 81.92120934 410.89425278 C79.08906639 410.88708792 76.2569856 410.88599672 73.42483521 410.88647461 C72.59178207 410.88287965 71.75872893 410.87928469 70.90043175 410.87558079 C66.81873562 410.78173302 66.81873562 410.78173302 63 412 C60.91847333 412.09738781 58.83380266 412.13076841 56.75 412.1328125 C55.5021875 412.13410156 54.254375 412.13539063 52.96875 412.13671875 C51.00421875 412.13091797 51.00421875 412.13091797 49 412.125 C47.03546875 412.13080078 47.03546875 412.13080078 45.03125 412.13671875 C43.15953125 412.13478516 43.15953125 412.13478516 41.25 412.1328125 C40.10015625 412.13168457 38.9503125 412.13055664 37.765625 412.12939453 C35 412 35 412 33 411 C32.34 411.33 31.68 411.66 31 412 C31 412.66 31 413.32 31 414 C31.99 414.33 32.98 414.66 34 415 C34.66 415.99 35.32 416.98 36 418 C39.06556598 418.73343428 39.06556598 418.73343428 42 419 C41.67 419.66 41.34 420.32 41 421 C44.34939881 423.02558881 46.86962551 423.21738987 50.75 423.125 C51.73484375 423.10695313 52.7196875 423.08890625 53.734375 423.0703125 C54.48203125 423.04710937 55.2296875 423.02390625 56 423 C56 423.66 56 424.32 56 425 C55.030625 425.433125 54.06125 425.86625 53.0625 426.3125 C49.72268235 427.7014861 49.72268235 427.7014861 49 431 C49.66 431.33 50.32 431.66 51 432 C51 432.66 51 433.32 51 434 C52.29233607 435.37310707 53.62437146 436.71034824 55 438 C54.34 438.33 53.68 438.66 53 439 C53 438.34 53 437.68 53 437 C52.41734375 436.74605469 51.8346875 436.49210937 51.234375 436.23046875 C48.75811967 434.86679667 47.19479374 433.35774797 45.25 431.3125 C40.72673812 426.67175079 35.93766713 422.4248296 30.94140625 418.30078125 C30.30074219 417.76839844 29.66007812 417.23601562 29 416.6875 C28.4225 416.21699219 27.845 415.74648438 27.25 415.26171875 C26 414 26 414 26 412 C22.93869622 410.1879278 21.34322022 409.93689413 17.875 410.5 C13.54689306 410.47839547 10.90880428 409.26266615 7.4375 406.6875 C1.68887472 400.61901303 2.25050983 393.90748074 2.375 385.875 C2.50581309 381.57649861 2.70650787 377.29040339 3 373 C4.86591797 372.72736328 4.86591797 372.72736328 6.76953125 372.44921875 C11.85649649 371.69116118 16.92930658 370.859565 22 370 C23.66289062 369.72736328 23.66289062 369.72736328 25.359375 369.44921875 C34.03851674 367.60552824 39.95736986 362.54468806 44.8515625 355.234375 C53.1746461 339.90022098 52.42405177 323.52275606 52.35644531 306.60693359 C52.35723721 304.04981415 52.35933761 301.49269483 52.36264038 298.93557739 C52.36722171 292.74242589 52.35802674 286.54942879 52.34235242 280.35629968 C52.32472865 273.13847253 52.32339145 265.9206689 52.32273683 258.70282359 C52.32105347 245.82838547 52.30529121 232.95400402 52.28125 220.07958984 C52.2579481 207.59195485 52.2438179 195.10435578 52.24023438 182.61669922 C52.24001161 181.84602011 52.23978884 181.075341 52.23955932 180.28130798 C52.23911672 178.72870058 52.23867469 177.17609318 52.23823325 175.62348578 C52.2379039 174.47461092 52.2379039 174.47461092 52.2375679 173.30252647 C52.23735192 172.53851669 52.23713593 171.7745069 52.2369134 170.9873453 C52.23321447 159.07093544 52.2218592 147.15453134 52.2094375 135.23812782 C52.20500418 130.92234577 52.20156518 126.60656426 52.19881538 122.29078083 C52.19397158 114.81406989 52.18386556 107.33739579 52.16798782 99.8606987 C52.16345941 97.37580618 52.16062488 94.89090992 52.15958023 92.40601349 C52.15783856 89.02311959 52.14996648 85.6402954 52.14044189 82.25741577 C52.14130838 81.26697026 52.14217486 80.27652474 52.1430676 79.25606573 C52.13922645 78.35105247 52.13538531 77.44603921 52.13142776 76.5136013 C52.12955802 75.34253572 52.12955802 75.34253572 52.1276505 74.14781225 C52.04620402 71.66191964 52.04620402 71.66191964 51 68 C46.71 67.67 42.42 67.34 38 67 C38 66.34 38 65.68 38 65 C37.37351562 64.93941406 36.74703125 64.87882812 36.1015625 64.81640625 C35.28429687 64.73261719 34.46703125 64.64882813 33.625 64.5625 C32.40683594 64.44068359 32.40683594 64.44068359 31.1640625 64.31640625 C29 64 29 64 27 63 C27 62.34 27 61.68 27 61 C26.34 60.67 25.68 60.34 25 60 C25 59.67 25 59.34 25 59 C23.35 58.67 21.7 58.34 20 58 C20 57.34 20 56.68 20 56 C19.2678125 56.08765625 18.535625 56.1753125 17.78125 56.265625 C14.03125193 55.90747912 13.0127519 54.49279256 10.5 51.75 C8.14907077 49.21695653 6.20813421 47.13041886 3.26953125 45.2890625 C-0.20270364 41.78694607 0.21929769 38.38758781 0.1875 33.625 C0.16236328 32.82578125 0.13722656 32.0265625 0.11132812 31.203125 C-0.0691675 24.3339771 -0.00517432 17.4584702 -0.00268555 10.58740234 C-0.00249168 9.56788986 -0.00229782 8.54837738 -0.00209808 7.49797058 C-0.00159483 4.99864694 -0.00089004 2.49932353 0 0 Z M5 4 C5 11.26 5 18.52 5 26 C6.73765625 26.03738281 8.4753125 26.07476562 10.265625 26.11328125 C12.59376965 26.17899501 14.92189373 26.24544042 17.25 26.3125 C18.38953125 26.33505859 19.5290625 26.35761719 20.703125 26.38085938 C34.04815506 26.79789156 47.79683154 29.1675341 57.375 39.1875 C69.64095757 54.22318992 67.2948829 75.5392676 67.2746582 93.76928711 C67.27901113 96.36767218 67.28419621 98.96605596 67.29014587 101.56443787 C67.30282558 107.86149689 67.3046951 114.15851314 67.30234561 120.45558279 C67.30055501 125.57859912 67.30232789 130.70160258 67.30657005 135.82461739 C67.30746284 136.92264497 67.30746284 136.92264497 67.30837366 138.04285492 C67.30958553 139.53042948 67.31079967 141.01800403 67.31201603 142.50557858 C67.32286526 156.42184046 67.32074129 170.33807803 67.31463119 184.25434125 C67.30946217 196.95653936 67.32072175 209.65866077 67.33972941 222.36084371 C67.35914801 235.43900011 67.36735691 248.5171203 67.36360615 261.5952912 C67.36170048 268.92350228 67.36411965 276.25164809 67.37832069 283.57984734 C67.39154333 290.47218619 67.38892014 297.36436957 67.37590981 304.25670815 C67.37355263 306.77729724 67.37624767 309.29789724 67.38453293 311.81847382 C67.50750936 352.15791373 67.50750936 352.15791373 53.3515625 366.8671875 C44.0019995 375.34702371 30.8167968 375.26704791 18.8125 376.125 C17.66974609 376.21136719 16.52699219 376.29773438 15.34960938 376.38671875 C12.56678989 376.59630348 9.7834448 376.79889023 7 377 C7 381.95 7 386.9 7 392 C108.31 392 209.62 392 314 392 C315.35578958 387.93263126 316.55171356 384.03304602 317.5859375 379.89453125 C317.87726563 378.74533203 318.16859375 377.59613281 318.46875 376.41210938 C319.06782723 374.03258495 319.66422886 371.65238514 320.2578125 369.27148438 C321.90321114 362.80174805 323.75751649 356.54027621 326.14868164 350.30517578 C327.39523297 346.92979934 328.20017444 343.50246193 329 340 C330.66176211 333.10794817 332.46311512 326.26365897 334.375 319.4375 C336.20800052 312.8857664 338.00507763 306.32578413 339.75 299.75 C339.96060059 298.96423584 340.17120117 298.17847168 340.38818359 297.36889648 C340.58492676 296.62325439 340.78166992 295.8776123 340.984375 295.109375 C341.15678711 294.45936523 341.32919922 293.80935547 341.50683594 293.13964844 C342.12639186 290.45163451 342.546507 287.72095801 343 285 C337.39 285 331.78 285 326 285 C325.18208984 286.81371094 325.18208984 286.81371094 324.34765625 288.6640625 C312.43958948 314.67877255 296.3786871 336.28423872 273 353 C272.154375 353.61359375 271.30875 354.2271875 270.4375 354.859375 C256.41338892 364.41330067 240.95604461 370.15096657 224.2578125 372.65771484 C222.26991012 372.95908153 220.29018011 373.31334623 218.3125 373.67578125 C208.86949512 375.19784454 199.41263332 375.1793085 189.875 375.1875 C189.19594604 375.18858765 188.51689209 375.18967529 187.81726074 375.1907959 C153.33332243 375.18454843 153.33332243 375.18454843 144.52734375 366.79296875 C134.59453498 355.13271498 132.68545965 339.00666688 132.73930359 324.27992249 C132.73356527 322.58793398 132.73356527 322.58793398 132.72771102 320.86176389 C132.71745263 317.10969848 132.72135953 313.35778814 132.7253418 309.60571289 C132.7209914 306.90437825 132.71587104 304.20305469 132.70985413 301.50172424 C132.69714772 294.94256832 132.6953083 288.38345341 132.69765439 281.82428724 C132.69944205 276.48997978 132.69767834 271.1556847 132.69342995 265.82137871 C132.69283476 265.06033407 132.69223957 264.29928943 132.69162634 263.51518283 C132.69041452 261.96881648 132.68920038 260.42245013 132.68798397 258.87608378 C132.67712434 244.39623885 132.6792636 229.91641724 132.68536881 215.43657099 C132.69053815 202.20836805 132.67927929 188.98023873 132.66027059 175.75205035 C132.64087022 162.1462879 132.63263995 148.54056024 132.63639385 134.93478388 C132.63830235 127.30537042 132.63585247 119.67601964 132.62167931 112.04661751 C132.60973655 105.55254806 132.60839304 99.0585799 132.62046947 92.56450898 C132.62633758 89.25560958 132.62587195 85.94693234 132.61546707 82.63803864 C132.60497399 79.0408764 132.6131214 75.4442061 132.6257782 71.84706116 C132.61840391 70.81561684 132.61102963 69.78417253 132.60343188 68.72147232 C132.69343579 56.50047049 135.55047573 45.70218777 143.48828125 36.22265625 C157.69638962 22.3671064 182.12866879 24.5940959 200.39790344 24.7976532 C229.3652531 25.22389788 259.74281377 34.30432435 281 55 C282.74790835 56.94928028 284.37027843 58.94970512 286 61 C286.66 61 287.32 61 288 61 C288.23332031 61.5259375 288.46664063 62.051875 288.70703125 62.59375 C290.41576497 65.77374991 292.55081437 68.60092328 294.6875 71.5 C298.77021871 77.10437164 302.35617271 82.79959599 305.72265625 88.8671875 C306.14417969 89.57101562 306.56570313 90.27484375 307 91 C307.33 91 307.66 91 308 91 C308 62.29 308 33.58 308 4 C208.01 4 108.02 4 5 4 Z " fill="#070808" transform="translate(350,310)"/>
<path d="M0 0 C7.65350943 0.95668868 9.27265027 1.24119192 13.625 6.625 C14.32157715 7.43988892 14.32157715 7.43988892 15.03222656 8.27124023 C15.94979296 9.34734492 16.85960193 10.43012246 17.76074219 11.52001953 C19.35878975 13.42848374 21.06030264 15.23526913 22.75 17.0625 C23.4925 18.031875 24.235 19.00125 25 20 C24.67 20.99 24.34 21.98 24 23 C23.21625 22.979375 22.4325 22.95875 21.625 22.9375 C19.01885039 22.81315937 19.01885039 22.81315937 17 24 C17 22.02 17 20.04 17 18 C16.34 18 15.68 18 15 18 C14.97468516 25.35065985 14.95714798 32.7013085 14.94506836 40.05200195 C14.94003359 42.55363383 14.93320539 45.05526276 14.92456055 47.55688477 C14.91245762 51.14860766 14.90676318 54.74029172 14.90234375 58.33203125 C14.89718246 59.45398392 14.89202118 60.57593658 14.88670349 61.73188782 C14.88662796 62.77274033 14.88655243 63.81359283 14.88647461 64.88598633 C14.884254 65.80309891 14.88203339 66.72021149 14.87974548 67.66511536 C14.90388642 70.15668165 14.90388642 70.15668165 16 73 C15.91120644 74.56677673 15.75567884 76.13014469 15.5625 77.6875 C14.95585241 83.35207189 14.95570553 88.91843767 15.12524414 94.60424805 C15.19066284 98.33219897 15.13012252 99.80481622 13 103 C6.07329292 104.40106408 -3.87089956 103.94934501 -9.890625 100.19921875 C-11.90176846 97.90699028 -13.46029386 95.62876658 -15 93 C-15.96359014 91.67602203 -16.94230477 90.36288843 -17.9375 89.0625 C-18.65292969 88.08796875 -18.65292969 88.08796875 -19.3828125 87.09375 C-22.66906739 82.83908183 -26.33871876 78.93112442 -30 75 C-30.67675781 74.24589844 -31.35351562 73.49179687 -32.05078125 72.71484375 C-36.48503939 67.97995794 -41.25922031 64.22414317 -46.625 60.625 C-47.24648926 60.20798828 -47.86797852 59.79097656 -48.50830078 59.36132812 C-52.5295279 56.74939464 -56.54548606 54.77493486 -61 53 C-61 52.34 -61 51.68 -61 51 C-62.00160156 50.84724609 -62.00160156 50.84724609 -63.0234375 50.69140625 C-66.0185134 49.99569964 -68.73152671 48.94860804 -71.56958008 47.77832031 C-77.97768204 45.15692785 -83.24227462 43.39582117 -90.26660156 43.94018555 C-93.02508341 44.0005489 -95.25605941 43.63151316 -97.94140625 43.03125 C-104.68093403 41.73438175 -111.28034855 41.70598295 -118.125 41.75 C-119.33542969 41.74226563 -120.54585937 41.73453125 -121.79296875 41.7265625 C-132.27364906 41.74937138 -141.13042252 42.40046177 -149.125 49.75 C-153.09256119 53.85015321 -154.72554972 58.47738213 -156 64 C-156.33 64.33 -156.66 64.66 -157 65 C-158.04012002 71.33785908 -158.14561368 77.5569535 -158.1328125 83.96875 C-158.13417709 85.02680847 -158.13554169 86.08486694 -158.13694763 87.17498779 C-158.13897024 90.61669051 -158.13266133 94.05830608 -158.125 97.5 C-158.12378143 98.67075073 -158.12256287 99.84150146 -158.12130737 101.04772949 C-158.10169632 117.1189228 -157.95113594 133.18337725 -157.5625 149.25 C-157.5429425 150.10924072 -157.52338501 150.96848145 -157.50323486 151.85375977 C-157.44704145 154.24125774 -157.3834692 156.6284104 -157.31640625 159.015625 C-157.29968369 159.71717712 -157.28296112 160.41872925 -157.26573181 161.14154053 C-157.42197827 164.35153241 -157.42197827 164.35153241 -156 167 C-155.90126184 168.99799572 -155.87028201 170.99957158 -155.875 173 C-155.87113281 174.6396875 -155.87113281 174.6396875 -155.8671875 176.3125 C-156 179 -156 179 -157 180 C-158.0929537 187.49525762 -158.19232135 195.11121499 -158.31640625 202.671875 C-158.33727798 203.77173233 -158.35814972 204.87158966 -158.37965393 206.004776 C-158.44559661 209.58644945 -158.50471681 213.16818616 -158.5625 216.75 C-158.58334656 217.98430756 -158.60419312 219.21861511 -158.62567139 220.49032593 C-159.14835115 251.7858396 -159.4107179 283.0831354 -158.5625 314.375 C-158.5429425 315.12963531 -158.52338501 315.88427063 -158.50323486 316.66177368 C-158.44713012 318.74090709 -158.38357206 320.81963534 -158.31640625 322.8984375 C-158.27974854 324.06036621 -158.24309082 325.22229492 -158.20532227 326.41943359 C-158.28638926 328.92987594 -158.28638926 328.92987594 -157 330 C-156.67618492 332.05769762 -156.39112253 334.12154877 -156.125 336.1875 C-155.25525749 342.01540964 -153.88850934 346.07111425 -150.6953125 351.0234375 C-150.23898437 351.73757813 -149.78265625 352.45171875 -149.3125 353.1875 C-148.87550781 353.84105469 -148.43851562 354.49460937 -147.98828125 355.16796875 C-147 357 -147 357 -147 360 C-146.46375 360.2475 -145.9275 360.495 -145.375 360.75 C-140.71629924 363.20194777 -137.15705934 365.09012207 -135 370 C-137.85475306 370.08156437 -140.70713565 370.14076372 -143.5625 370.1875 C-144.76229492 370.22520508 -144.76229492 370.22520508 -145.98632812 370.26367188 C-153.87502705 370.36026819 -159.48149637 368.13759859 -165.3671875 362.79296875 C-175.59134334 351.56596509 -177.31358875 334.74639666 -177.26069641 320.27992249 C-177.26452196 319.15193015 -177.26834751 318.02393782 -177.27228898 316.86176389 C-177.28254737 313.10969848 -177.27864047 309.35778814 -177.2746582 305.60571289 C-177.2790086 302.90437825 -177.28412896 300.20305469 -177.29014587 297.50172424 C-177.30285228 290.94256832 -177.3046917 284.38345341 -177.30234561 277.82428724 C-177.30055795 272.48997978 -177.30232166 267.1556847 -177.30657005 261.82137871 C-177.30716524 261.06033407 -177.30776043 260.29928943 -177.30837366 259.51518283 C-177.30958548 257.96881648 -177.31079962 256.42245013 -177.31201603 254.87608378 C-177.32287566 240.39623885 -177.3207364 225.91641724 -177.31463119 211.43657099 C-177.30946185 198.20836805 -177.32072071 184.98023873 -177.33972941 171.75205035 C-177.35912978 158.1462879 -177.36736005 144.54056024 -177.36360615 130.93478388 C-177.36169765 123.30537042 -177.36414753 115.67601964 -177.37832069 108.04661751 C-177.39026345 101.55254806 -177.39160696 95.0585799 -177.37953053 88.56450898 C-177.37366242 85.25560958 -177.37412805 81.94693234 -177.38453293 78.63803864 C-177.39502601 75.0408764 -177.3868786 71.4442061 -177.3742218 67.84706116 C-177.38528323 66.29989468 -177.38528323 66.29989468 -177.39656812 64.72147232 C-177.30570415 52.38368927 -174.4051047 41.48724567 -166.2890625 32 C-151.9958271 18.00830965 -129.21216247 19.6313907 -110.7097168 19.77416992 C-79.81275018 20.11842644 -49.84785009 29.34857449 -27 51 C-26.236875 51.71285156 -25.47375 52.42570312 -24.6875 53.16015625 C-23 55 -23 55 -23 57 C-22.34 57 -21.68 57 -21 57 C-19.7824707 58.27832031 -19.7824707 58.27832031 -18.42578125 60.078125 C-17.92594727 60.73925293 -17.42611328 61.40038086 -16.91113281 62.08154297 C-16.38358398 62.79713379 -15.85603516 63.51272461 -15.3125 64.25 C-14.77592773 64.97203613 -14.23935547 65.69407227 -13.68652344 66.43798828 C-2 82.3828019 -2 82.3828019 -2 87 C-1.34 87 -0.68 87 0 87 C0 58.29 0 29.58 0 0 Z " fill="#060807" transform="translate(659,314)"/>
<path d="M0 0 C5.22201964 4.47601683 11.33286939 11.14624081 13 18 C12.625 20.8125 12.625 20.8125 12 23 C9.6875 23.26171875 9.6875 23.26171875 7 23 C5.375 21.20703125 5.375 21.20703125 4 18.8125 C-0.18558111 12.02420983 -5.93399349 5.80390638 -13.84472656 3.45141602 C-17.7575863 2.63187845 -21.70288712 2.73128695 -25.6875 2.6875 C-26.54794922 2.65849609 -27.40839844 2.62949219 -28.29492188 2.59960938 C-37.70495348 2.50742368 -44.49417139 5.83391649 -51.28125 12.23046875 C-58.0262702 19.17477364 -60.07532936 28.05476794 -60.375 37.5625 C-60.03619133 48.25037343 -56.73048967 58.77457313 -48.875 66.1875 C-47.27701245 67.49213718 -45.6519161 68.76435622 -44 70 C-42.95779297 70.79857422 -42.95779297 70.79857422 -41.89453125 71.61328125 C-36.16992879 75.21015536 -30.52648267 75.48041686 -23.9375 75.5625 C-23.09856201 75.57732422 -22.25962402 75.59214844 -21.39526367 75.60742188 C-12.8833089 75.467376 -5.68059269 72.22828993 1 67 C5.51976896 62.38260433 5.51976896 62.38260433 9 57 C-4.2 57 -17.4 57 -31 57 C-31 41.16 -31 25.32 -31 9 C-28.69 9 -26.38 9 -24 9 C-24 22.53 -24 36.06 -24 50 C-11.79 50 0.42 50 13 50 C14.67359552 56.69438209 14.93037773 60.95270574 11.5625 67 C6.72459069 74.40519609 0.49221116 80.27608321 -8 83 C-20.3178141 85.55480589 -33.48130861 85.17396958 -45 80 C-46.134375 79.525625 -47.26875 79.05125 -48.4375 78.5625 C-51.48033755 76.70711125 -53.60628965 74.63921911 -56 72 C-56.845625 71.071875 -57.69125 70.14375 -58.5625 69.1875 C-61.36599567 65.77569867 -63.15276146 61.98487266 -65 58 C-65.34417969 57.37351562 -65.68835938 56.74703125 -66.04296875 56.1015625 C-71.13063872 44.92945456 -69.85248813 31.27312464 -66.16796875 20.0078125 C-61.38342479 7.68641168 -53.57511579 0.68116772 -41.890625 -5.03125 C-29.02297675 -10.25570869 -11.52527532 -7.50357503 0 0 Z " fill="#F4F4F4" transform="translate(960,898)"/>
<path d="M0 0 C0.82242188 0.01353516 1.64484375 0.02707031 2.4921875 0.04101562 C4.49508221 0.07594984 6.49763356 0.12973943 8.5 0.1875 C8.5 1.1775 8.5 2.1675 8.5 3.1875 C7.324375 3.3421875 7.324375 3.3421875 6.125 3.5 C3.16954819 3.96345022 3.16954819 3.96345022 1.5 7.1875 C-0.48 7.1875 -2.46 7.1875 -4.5 7.1875 C-4.5 23.0275 -4.5 38.8675 -4.5 55.1875 C8.7 55.1875 21.9 55.1875 35.5 55.1875 C32.03296137 63.85509657 26.04017086 68.41457943 17.69921875 72.27734375 C9.26894673 75.76624851 -2.31226068 75.81593835 -10.984375 73.09375 C-13.71236216 71.64498846 -16.07105964 70.09205772 -18.5 68.1875 C-19.63501953 67.34058594 -19.63501953 67.34058594 -20.79296875 66.4765625 C-28.76181165 60.06084563 -32.81792401 51.17387908 -34.5 41.1875 C-35.30894683 31.34012795 -34.29273487 21.40569097 -28.25 13.3125 C-20.1067483 3.88886282 -12.61074792 -0.40050421 0 0 Z " fill="#A7A7A7" transform="translate(933.5,899.8125)"/>
<path d="M0 0 C39.82324988 -0.11397748 79.64647421 -0.20250411 119.46985461 -0.25532665 C124.16764748 -0.26158044 128.86544003 -0.26805203 133.56323242 -0.2746582 C134.49850791 -0.27596976 135.43378341 -0.27728131 136.39740058 -0.2786326 C151.55619535 -0.30040983 166.71489565 -0.33984407 181.87363432 -0.38576398 C197.4192235 -0.43246423 212.96476309 -0.46028175 228.51041955 -0.47044247 C238.10877061 -0.47731502 247.70685468 -0.49904798 257.30512359 -0.53958233 C263.88032579 -0.56594138 270.45538927 -0.57401658 277.03064052 -0.56750689 C280.82857024 -0.56429325 284.62603232 -0.56933867 288.42387962 -0.59602737 C292.53507793 -0.62470827 296.64527113 -0.6149867 300.75654602 -0.60127258 C301.96567431 -0.61583679 303.1748026 -0.630401 304.42057115 -0.64540654 C305.51684711 -0.6354513 306.61312307 -0.62549606 307.74261951 -0.61523914 C308.69230006 -0.61713775 309.64198061 -0.61903635 310.62043935 -0.62099248 C313 0 313 0 314.82858628 2.53845245 C315.21515281 3.35076314 315.60171934 4.16307383 316 5 C313 5 313 5 309 4 C309 32.71 309 61.42 309 91 C308.67 91 308.34 91 308 91 C308 62.29 308 33.58 308 4 C208.34 4 108.68 4 6 4 C6 3.67 6 3.34 6 3 C65.4 3 124.8 3 186 3 C186 2.34 186 1.68 186 1 C124.95 1 63.9 1 1 1 C1 7.93 1 14.86 1 22 C0.67 22 0.34 22 0 22 C0 14.74 0 7.48 0 0 Z " fill="#3A3A3A" transform="translate(350,310)"/>
<path d="M0 0 C8.25 0 16.5 0 25 0 C25 0.33 25 0.66 25 1 C19.98391475 2.0176403 15.21391694 2.11856434 10.125 2.0625 C9.34125 2.05798828 8.5575 2.05347656 7.75 2.04882812 C5.83329986 2.03714093 3.91663952 2.01920908 2 2 C1.67 3.175625 1.34 4.35125 1 5.5625 C-3.10006664 17.76690396 -10.39902067 28.72186158 -18 39 C-18.63550781 39.86109375 -19.27101563 40.7221875 -19.92578125 41.609375 C-28.77996088 53.12164168 -39.23177563 62.58571958 -51 71 C-51.845625 71.61359375 -52.69125 72.2271875 -53.5625 72.859375 C-67.58661108 82.41330067 -83.04395539 88.15096657 -99.7421875 90.65771484 C-101.73008988 90.95908153 -103.70981989 91.31334623 -105.6875 91.67578125 C-115.13050488 93.19784454 -124.58736668 93.1793085 -134.125 93.1875 C-134.80405396 93.18858765 -135.48310791 93.18967529 -136.18273926 93.1907959 C-145.50427391 93.18910711 -154.71414535 92.78664532 -164 92 C-164 91.67 -164 91.34 -164 91 C-159.38 91 -154.76 91 -150 91 C-150 90.34 -150 89.68 -150 89 C-150.99 88.67 -151.98 88.34 -153 88 C-154 87 -155 86 -156 85 C-157.98188345 83.63988391 -159.97951869 82.30208796 -162 81 C-161.505 80.01 -161.505 80.01 -161 79 C-159.68 79 -158.36 79 -157 79 C-156.34 80.32 -155.68 81.64 -155 83 C-153.35 83 -151.7 83 -150 83 C-150.33 83.99 -150.66 84.98 -151 86 C-118.13812571 88.78399897 -118.13812571 88.78399897 -86 83 C-85.33339355 82.79101074 -84.66678711 82.58202148 -83.97998047 82.36669922 C-57.70420785 73.99682176 -35.12598287 56.2216044 -19 34 C-18.42668945 33.21665283 -18.42668945 33.21665283 -17.84179688 32.41748047 C-10.44474964 22.19818424 -5.20015172 11.49065784 0 0 Z " fill="#1C1C1C" transform="translate(674,593)"/>
<path d="M0 0 C0 0.99 0 1.98 0 3 C-0.98395752 2.99476318 -1.96791504 2.98952637 -2.98168945 2.98413086 C-6.63255911 2.96602971 -10.28342479 2.95454925 -13.93432617 2.94506836 C-15.51441108 2.94003986 -17.09449134 2.93321622 -18.67456055 2.92456055 C-20.94581246 2.91243008 -23.21700285 2.90675687 -25.48828125 2.90234375 C-26.19463211 2.89718246 -26.90098297 2.89202118 -27.6287384 2.88670349 C-30.70254391 2.88635197 -33.0590442 3.0196814 -36 4 C-36 3.34 -36 2.68 -36 2 C-37.69578532 2.24398781 -37.69578532 2.24398781 -39.42582893 2.49290466 C-44.02759277 3.06463799 -48.55461786 3.13384127 -53.18673706 3.11352539 C-54.07829219 3.11367425 -54.96984732 3.11382311 -55.88841927 3.11397648 C-58.85776632 3.11328535 -61.8270505 3.10545856 -64.79638672 3.09765625 C-66.93222519 3.09573599 -69.06806412 3.0942727 -71.2039032 3.0932312 C-75.7933524 3.09007586 -80.38278309 3.08381603 -84.97222519 3.07516479 C-92.22367972 3.06163286 -99.47512813 3.05574668 -106.72659302 3.05102539 C-122.10940356 3.03993392 -137.49219939 3.02038086 -152.875 3 C-169.5023429 2.97799178 -186.1296799 2.95742445 -202.75703442 2.94658184 C-209.97199693 2.94158743 -217.18693161 2.93171077 -224.40188289 2.91815186 C-228.87826092 2.91071823 -233.35463507 2.90738193 -237.83101845 2.9051857 C-239.91361153 2.90330615 -241.99620384 2.8996904 -244.07879066 2.89425278 C-246.91093361 2.88708792 -249.7430144 2.88599672 -252.57516479 2.88647461 C-253.40821793 2.88287965 -254.24127107 2.87928469 -255.09956825 2.87558079 C-259.18126438 2.78173302 -259.18126438 2.78173302 -263 4 C-265.08152667 4.09738781 -267.16619734 4.13076841 -269.25 4.1328125 C-270.4978125 4.13410156 -271.745625 4.13539063 -273.03125 4.13671875 C-274.3409375 4.13285156 -275.650625 4.12898437 -277 4.125 C-278.3096875 4.12886719 -279.619375 4.13273438 -280.96875 4.13671875 C-282.84046875 4.13478516 -282.84046875 4.13478516 -284.75 4.1328125 C-285.89984375 4.13168457 -287.0496875 4.13055664 -288.234375 4.12939453 C-291 4 -291 4 -293 3 C-293.99 3.495 -293.99 3.495 -295 4 C-295 4.66 -295 5.32 -295 6 C-294.01 6.33 -293.02 6.66 -292 7 C-291.01 8.485 -291.01 8.485 -290 10 C-286.93443402 10.73343428 -286.93443402 10.73343428 -284 11 C-284.33 11.66 -284.66 12.32 -285 13 C-281.65060119 15.02558881 -279.13037449 15.21738987 -275.25 15.125 C-274.26515625 15.10695313 -273.2803125 15.08890625 -272.265625 15.0703125 C-271.51796875 15.04710937 -270.7703125 15.02390625 -270 15 C-270 15.66 -270 16.32 -270 17 C-270.969375 17.433125 -271.93875 17.86625 -272.9375 18.3125 C-276.27731765 19.7014861 -276.27731765 19.7014861 -277 23 C-276.34 23.33 -275.68 23.66 -275 24 C-275 24.66 -275 25.32 -275 26 C-273.70766393 27.37310707 -272.37562854 28.71034824 -271 30 C-271.99 30.495 -271.99 30.495 -273 31 C-273 30.34 -273 29.68 -273 29 C-273.87398438 28.61908203 -273.87398438 28.61908203 -274.765625 28.23046875 C-277.24188033 26.86679667 -278.80520626 25.35774797 -280.75 23.3125 C-285.27326188 18.67175079 -290.06233287 14.4248296 -295.05859375 10.30078125 C-295.69925781 9.76839844 -296.33992188 9.23601563 -297 8.6875 C-297.5775 8.21699219 -298.155 7.74648438 -298.75 7.26171875 C-300 6 -300 6 -300 4 C-301.32 3.34 -302.64 2.68 -304 2 C-304 1.67 -304 1.34 -304 1 C-203.68 0.67 -103.36 0.34 0 0 Z " fill="#2A2B2C" transform="translate(676,718)"/>
<path d="M0 0 C3.62484173 -0.08837761 7.24940017 -0.14084706 10.875 -0.1875 C12.39480469 -0.22520508 12.39480469 -0.22520508 13.9453125 -0.26367188 C20.82881001 -0.32985935 26.54471294 0.62998537 33 3 C33.69077637 3.23750977 34.38155273 3.47501953 35.09326172 3.71972656 C39.65487584 5.43690268 39.65487584 5.43690268 41.1875 7.9375 C41.455625 8.618125 41.72375 9.29875 42 10 C42.9590625 10.804375 42.9590625 10.804375 43.9375 11.625 C47.12362629 15.2938727 47.77049496 19.32788084 49 24 C42.07 23.505 42.07 23.505 35 23 C35 22.34 35 21.68 35 21 C34.06027344 20.90912109 34.06027344 20.90912109 33.1015625 20.81640625 C31.87566406 20.69072266 31.87566406 20.69072266 30.625 20.5625 C29.81289063 20.48128906 29.00078125 20.40007812 28.1640625 20.31640625 C26 20 26 20 24 19 C24 18.34 24 17.68 24 17 C23.34 16.67 22.68 16.34 22 16 C22 15.67 22 15.34 22 15 C19.525 14.505 19.525 14.505 17 14 C17 13.34 17 12.68 17 12 C16.27039063 12.08894531 15.54078125 12.17789062 14.7890625 12.26953125 C11.00931932 11.90426195 9.92565968 10.43537564 7.375 7.6875 C6.61960937 6.88699219 5.86421875 6.08648437 5.0859375 5.26171875 C4.39757812 4.51535156 3.70921875 3.76898438 3 3 C2.00336358 1.9966477 1.00401871 0.99596508 0 0 Z " fill="#494A4C" transform="translate(353,354)"/>
<path d="M0 0 C0.66 0.33 1.32 0.66 2 1 C1.125 4.875 1.125 4.875 0 6 C-1.04012002 12.33785908 -1.14561368 18.5569535 -1.1328125 24.96875 C-1.13417709 26.02680847 -1.13554169 27.08486694 -1.13694763 28.17498779 C-1.13897024 31.61669051 -1.13266133 35.05830608 -1.125 38.5 C-1.12378143 39.67075073 -1.12256287 40.84150146 -1.12130737 42.04772949 C-1.10169632 58.1189228 -0.95113594 74.18337725 -0.5625 90.25 C-0.5429425 91.10924072 -0.52338501 91.96848145 -0.50323486 92.85375977 C-0.44704145 95.24125774 -0.3834692 97.6284104 -0.31640625 100.015625 C-0.29968369 100.71717712 -0.28296112 101.41872925 -0.26573181 102.14154053 C-0.42197827 105.35153241 -0.42197827 105.35153241 1 108 C1.09873816 109.99799572 1.12971799 111.99957158 1.125 114 C1.12757813 115.093125 1.13015625 116.18625 1.1328125 117.3125 C1 120 1 120 0 121 C-1.0929537 128.49525762 -1.19232135 136.11121499 -1.31640625 143.671875 C-1.33727798 144.77173233 -1.35814972 145.87158966 -1.37965393 147.004776 C-1.44559661 150.58644945 -1.50471681 154.16818616 -1.5625 157.75 C-1.58334656 158.98430756 -1.60419312 160.21861511 -1.62567139 161.49032593 C-2.14835115 192.7858396 -2.4107179 224.0831354 -1.5625 255.375 C-1.5429425 256.12963531 -1.52338501 256.88427063 -1.50323486 257.66177368 C-1.44713012 259.74090709 -1.38357206 261.81963534 -1.31640625 263.8984375 C-1.26141968 265.64133057 -1.26141968 265.64133057 -1.20532227 267.41943359 C-1.28638926 269.92987594 -1.28638926 269.92987594 0 271 C0.32381508 273.05769762 0.60887747 275.12154877 0.875 277.1875 C1.73655027 283.05118545 2.69872439 287.69872439 7 292 C6.67 292.99 6.34 293.98 6 295 C5.505 293.515 5.505 293.515 5 292 C4.34 292 3.68 292 3 292 C2.28385417 290.30729167 1.56770833 288.61458333 0.8515625 286.921875 C0.02499377 284.985009 0.02499377 284.985009 -1.01417828 283.14243031 C-2.71462032 279.44695629 -2.76688282 275.54869251 -3.1105957 271.53198242 C-3.19488736 270.56468547 -3.27917902 269.59738852 -3.36602497 268.60077953 C-4.36709007 255.90972879 -4.26729319 243.21001337 -4.23046875 230.48828125 C-4.22854409 227.7145583 -4.22948763 224.94083762 -4.23017883 222.16711426 C-4.2299072 215.51317019 -4.21841677 208.85929254 -4.20258409 202.20536911 C-4.19001943 196.82615281 -4.18217759 191.44694701 -4.17724609 186.06771851 C-4.12017229 125.70889338 -3.66792469 65.35510345 -3 5 C-2.34 5 -1.68 5 -1 5 C-0.67 3.35 -0.34 1.7 0 0 Z " fill="#2E2F31" transform="translate(502,373)"/>
<path d="M0 0 C61.05 0 122.1 0 185 0 C185 0.66 185 1.32 185 2 C125.6 2.33 66.2 2.66 5 3 C4.67 9.93 4.34 16.86 4 24 C3.67 24 3.34 24 3 24 C3 18.39 3 12.78 3 7 C2.34 7 1.68 7 1 7 C0.67 7.66 0.34 8.32 0 9 C0 6.03 0 3.06 0 0 Z " fill="#0F0F0F" transform="translate(351,311)"/>
<path d="M0 0 C1.32 0 2.64 0 4 0 C4 0.66 4 1.32 4 2 C6.31 2 8.62 2 11 2 C11 3.66666667 11 5.33333333 11 7 C12.0725 7.144375 13.145 7.28875 14.25 7.4375 C16.91662949 7.83749442 19.41399729 8.27591924 22 9 C22 9.66 22 10.32 22 11 C26.29 11 30.58 11 35 11 C36.87912469 15.69781173 37.22365258 17.92919738 37.125 22.8125 C37.10695313 23.97394531 37.08890625 25.13539063 37.0703125 26.33203125 C37.04710937 27.21246094 37.02390625 28.09289062 37 29 C36.01 29.33 35.02 29.66 34 30 C33.67 30.66 33.34 31.32 33 32 C32.236875 31.01 31.47375 30.02 30.6875 29 C28.09399227 25.96120323 25.42758874 23.79909479 22.125 21.5625 C16.64490833 17.74235311 12.01878985 13.29432786 7.3125 8.5625 C6.59271973 7.8394165 5.87293945 7.11633301 5.13134766 6.37133789 C0 1.14625282 0 1.14625282 0 0 Z " fill="#919192" transform="translate(366,366)"/>
<path d="M0 0 C9.86437631 -0.89676148 19.26816499 3.85458338 28 8 C28 8.66 28 9.32 28 10 C28.9075 10.165 29.815 10.33 30.75 10.5 C42.99004823 14.03601393 54.38523809 25.10080952 62 35 C59.69 35 57.38 35 55 35 C54.505 33.02 54.505 33.02 54 31 C53.34 31 52.68 31 52 31 C51.34 30.34 50.68 29.68 50 29 C49.01 29 48.02 29 47 29 C46.505 27.515 46.505 27.515 46 26 C45.38125 26.185625 44.7625 26.37125 44.125 26.5625 C42 27 42 27 40 26 C40 25.34 40 24.68 40 24 C38.35 24 36.7 24 35 24 C34.34 22.68 33.68 21.36 33 20 C34.32 19.34 35.64 18.68 37 18 C32.7362719 15.64089647 32.7362719 15.64089647 28 15 C28 14.01 28 13.02 28 12 C27.05125 12.020625 26.1025 12.04125 25.125 12.0625 C22 12 22 12 20 11 C20 10.34 20 9.68 20 9 C16.7 8.67 13.4 8.34 10 8 C11.32 7.67 12.64 7.34 14 7 C14 6.01 14 5.02 14 4 C13.11248047 3.92652344 13.11248047 3.92652344 12.20703125 3.8515625 C7.80895528 3.43543133 4.03071103 2.95034405 0 1 C0 0.67 0 0.34 0 0 Z " fill="#5B5C5E" transform="translate(570,357)"/>
<path d="M0 0 C1.12518335 0.95710914 2.24933432 1.91543204 3.37304688 2.87426758 C3.9991687 3.4078035 4.62529053 3.94133942 5.27038574 4.49104309 C7.14414152 6.12575252 8.86085846 7.81730925 10.5 9.6875 C11.0053125 10.24824219 11.510625 10.80898438 12.03125 11.38671875 C12.3509375 11.91910156 12.670625 12.45148438 13 13 C12.67 13.99 12.34 14.98 12 16 C11.21625 15.979375 10.4325 15.95875 9.625 15.9375 C7.01885039 15.81315937 7.01885039 15.81315937 5 17 C5 15.02 5 13.04 5 11 C4.34 11 3.68 11 3 11 C2.97468516 18.35065985 2.95714798 25.7013085 2.94506836 33.05200195 C2.94003359 35.55363383 2.93320539 38.05526276 2.92456055 40.55688477 C2.91245762 44.14860766 2.90676318 47.74029172 2.90234375 51.33203125 C2.89718246 52.45398392 2.89202118 53.57593658 2.88670349 54.73188782 C2.88659019 56.29316658 2.88659019 56.29316658 2.88647461 57.88598633 C2.884254 58.80309891 2.88203339 59.72021149 2.87974548 60.66511536 C2.90388642 63.15668165 2.90388642 63.15668165 4 66 C3.91120644 67.56677673 3.75567884 69.13014469 3.5625 70.6875 C2.95585241 76.35207189 2.95570553 81.91843767 3.12524414 87.60424805 C3.19066284 91.33219897 3.13012252 92.80481622 1 96 C0.86729473 87.3222058 0.73679221 78.64438207 0.60884857 69.96651649 C0.54932885 65.933879 0.48914368 61.90125409 0.42724609 57.86865234 C0.13166743 38.57745794 -0.08479069 19.29412066 0 0 Z " fill="#222324" transform="translate(671,321)"/>
<path d="M0 0 C0.33 0 0.66 0 1 0 C1.00423194 0.56041646 1.00846388 1.12083292 1.01282406 1.6982317 C1.11746735 15.52185189 1.22631005 29.34543398 1.33933926 43.16898823 C1.39393371 49.85475162 1.44717614 56.5405196 1.49731445 63.22631836 C1.74497882 99.7008122 1.74497882 99.7008122 2.47265625 136.16796875 C2.49134703 136.90005365 2.5100378 137.63213856 2.52929497 138.38640785 C2.58154095 140.37259313 2.64215248 142.35855339 2.70336914 144.34448242 C2.73644669 145.42565842 2.76952423 146.50683441 2.80360413 147.62077332 C2.73804214 149.9535551 2.73804214 149.9535551 4 151 C4.32381508 153.05769762 4.60887747 155.12154877 4.875 157.1875 C5.73655027 163.05118545 6.69872439 167.69872439 11 172 C10.67 172.99 10.34 173.98 10 175 C9.67 174.01 9.34 173.02 9 172 C8.34 172 7.68 172 7 172 C6.28385417 170.30729167 5.56770833 168.61458333 4.8515625 166.921875 C4.02384311 164.98416705 4.02384311 164.98416705 2.98589897 163.13354683 C1.31120125 159.50939657 1.23100526 155.72741096 0.88720703 151.78466797 C0.80284456 150.8255142 0.71848209 149.86636044 0.63156319 148.8781414 C-0.41502743 135.50885667 -0.25488687 122.10114929 -0.20278788 108.70118952 C-0.19007334 104.86426702 -0.18909404 101.02733949 -0.18673706 97.19039917 C-0.18058196 89.9627031 -0.16425427 82.73506933 -0.14403808 75.50740039 C-0.1214903 67.26279956 -0.11063876 59.01819536 -0.10064721 50.77357125 C-0.07988088 33.84901179 -0.04482441 16.92451253 0 0 Z " fill="#111214" transform="translate(498,493)"/>
<path d="M0 0 C4.62 0 9.24 0 14 0 C14.33 0.99 14.66 1.98 15 3 C14.360625 3.12375 13.72125 3.2475 13.0625 3.375 C12.381875 3.58125 11.70125 3.7875 11 4 C10.67 4.66 10.34 5.32 10 6 C14.29 6.99 18.58 7.98 23 9 C21.68 9.33 20.36 9.66 19 10 C19 10.99 19 11.98 19 13 C19.66 13.33 20.32 13.66 21 14 C20.34 14 19.68 14 19 14 C19.33 14.66 19.66 15.32 20 16 C22.97 16 25.94 16 29 16 C27.02 16.99 27.02 16.99 25 18 C25 18.66 25 19.32 25 20 C25.99 20.33 26.98 20.66 28 21 C27.01 23.475 27.01 23.475 26 26 C24.84775972 25.07038578 23.70340824 24.1309875 22.5625 23.1875 C21.92441406 22.66542969 21.28632812 22.14335937 20.62890625 21.60546875 C19 20 19 20 18 17 C17.1028125 16.566875 17.1028125 16.566875 16.1875 16.125 C13.28204054 14.6307637 11.98151055 12.5819683 10 10 C8.3545622 8.31237149 6.68711423 6.6459651 5 5 C3.33333333 3.33333333 1.66666667 1.66666667 0 0 Z " fill="#474849" transform="translate(653,416)"/>
<path d="M0 0 C1.98 0 3.96 0 6 0 C6.268125 0.639375 6.53625 1.27875 6.8125 1.9375 C7.88667752 4.33131686 7.88667752 4.33131686 11 5 C11.99 6.485 11.99 6.485 13 8 C16.06556598 8.73343428 16.06556598 8.73343428 19 9 C18.67 9.66 18.34 10.32 18 11 C21.34939881 13.02558881 23.86962551 13.21738987 27.75 13.125 C28.73484375 13.10695313 29.7196875 13.08890625 30.734375 13.0703125 C31.48203125 13.04710937 32.2296875 13.02390625 33 13 C33 13.66 33 14.32 33 15 C32.030625 15.433125 31.06125 15.86625 30.0625 16.3125 C26.72268235 17.7014861 26.72268235 17.7014861 26 21 C26.66 21.33 27.32 21.66 28 22 C28 22.66 28 23.32 28 24 C29.29233607 25.37310707 30.62437146 26.71034824 32 28 C31.34 28.33 30.68 28.66 30 29 C30 28.34 30 27.68 30 27 C29.12601562 26.61908203 29.12601562 26.61908203 28.234375 26.23046875 C25.75811967 24.86679667 24.19479374 23.35774797 22.25 21.3125 C17.72673812 16.67175079 12.93766713 12.4248296 7.94140625 8.30078125 C7.30074219 7.76839844 6.66007812 7.23601563 6 6.6875 C5.4225 6.21699219 4.845 5.74648438 4.25 5.26171875 C3 4 3 4 3 2 C2.01 1.67 1.02 1.34 0 1 C0 0.67 0 0.34 0 0 Z " fill="#747677" transform="translate(373,720)"/>
<path d="M0 0 C1.65 0 3.3 0 5 0 C5.66 1.32 6.32 2.64 7 4 C8.65 4 10.3 4 12 4 C11.67 4.99 11.34 5.98 11 7 C29.315 7.99 29.315 7.99 48 9 C48 9.33 48 9.66 48 10 C38.76 10 29.52 10 20 10 C19.67 10.99 19.34 11.98 19 13 C27.25 13 35.5 13 44 13 C44 13.33 44 13.66 44 14 C39.6990596 14.02513587 35.39816063 14.04306094 31.09716797 14.05493164 C29.64078016 14.05989187 28.18439715 14.06666215 26.72802734 14.07543945 C17.09524918 14.13194643 7.60376594 13.84225236 -2 13 C-2 12.67 -2 12.34 -2 12 C2.62 12 7.24 12 12 12 C12 11.34 12 10.68 12 10 C11.01 9.67 10.02 9.34 9 9 C8 8 7 7 6 6 C4.948125 5.319375 3.89625 4.63875 2.8125 3.9375 C1.884375 3.298125 0.95625 2.65875 0 2 C0 1.34 0 0.68 0 0 Z " fill="#3D3E3F" transform="translate(512,672)"/>
<path d="M0 0 C8.25 0 16.5 0 25 0 C25 0.33 25 0.66 25 1 C19.98391475 2.0176403 15.21391694 2.11856434 10.125 2.0625 C9.34125 2.05798828 8.5575 2.05347656 7.75 2.04882812 C5.83329986 2.03714093 3.91663952 2.01920908 2 2 C1.67 3.175625 1.34 4.35125 1 5.5625 C-2.35123171 15.64811162 -8.21496208 25.14166069 -14 34 C-15.32 33.34 -16.64 32.68 -18 32 C-17.61070312 31.49855469 -17.22140625 30.99710938 -16.8203125 30.48046875 C-10.10811099 21.40198422 -3.58142305 10.74426915 0 0 Z " fill="#2A2A2A" transform="translate(674,593)"/>
<path d="M0 0 C17.16 0 34.32 0 52 0 C52 0.33 52 0.66 52 1 C51.06027344 1.09087891 51.06027344 1.09087891 50.1015625 1.18359375 C49.28429687 1.26738281 48.46703125 1.35117187 47.625 1.4375 C46.81289063 1.51871094 46.00078125 1.59992187 45.1640625 1.68359375 C42.95727195 1.89090114 42.95727195 1.89090114 41 3 C38.95366207 3.09741841 36.90412321 3.13076895 34.85546875 3.1328125 C33.62119141 3.13410156 32.38691406 3.13539063 31.11523438 3.13671875 C29.81908203 3.13285156 28.52292969 3.12898437 27.1875 3.125 C25.26067383 3.13080078 25.26067383 3.13080078 23.29492188 3.13671875 C21.43770508 3.13478516 21.43770508 3.13478516 19.54296875 3.1328125 C18.40883545 3.13168457 17.27470215 3.13055664 16.10620117 3.12939453 C13.28408687 3.01183416 10.74374809 2.64517322 8 2 C7.67 2.66 7.34 3.32 7 4 C7 3.01 7 2.02 7 1 C6.401875 1.20625 5.80375 1.4125 5.1875 1.625 C3 2 3 2 0 0 Z " fill="#2F3030" transform="translate(372,719)"/>
<path d="M0 0 C2.75089862 -0.15719421 4.68553934 -0.13102527 7.25 0.9375 C9.974952 1.99032236 11.34473942 2.00499606 14.1875 2 C20.93890544 2.53420211 24.81567586 8.18671691 29 13 C25.71023192 14.09658936 24.28696233 13.79953138 21 13 C21 12.01 21 11.02 21 10 C20.34 10 19.68 10 19 10 C18.34 9.34 17.68 8.68 17 8 C16.01 8 15.02 8 14 8 C13.67 7.01 13.34 6.02 13 5 C12.38125 5.185625 11.7625 5.37125 11.125 5.5625 C9 6 9 6 7 5 C7 4.34 7 3.68 7 3 C5.824375 3.0928125 5.824375 3.0928125 4.625 3.1875 C3.75875 3.125625 2.8925 3.06375 2 3 C1.34 2.01 0.68 1.02 0 0 Z " fill="#858687" transform="translate(603,378)"/>
<path d="M0 0 C0 0.66 0 1.32 0 2 C2.64 2.33 5.28 2.66 8 3 C8 3.33 8 3.66 8 4 C-0.35885658 4.68335178 -8.6126612 5.11334242 -17 5 C-17 9.95 -17 14.9 -17 20 C-17.33 20 -17.66 20 -18 20 C-18 14.72 -18 9.44 -18 4 C-14.535 3.505 -14.535 3.505 -11 3 C-12.32 2.01 -13.64 1.02 -15 0 C-9.76528314 -0.75612577 -5.22745859 -1.2063366 0 0 Z " fill="#383838" transform="translate(374,682)"/>
<path d="M0 0 C9.86437631 -0.89676148 19.26816499 3.85458338 28 8 C28 8.66 28 9.32 28 10 C28.66 10.33 29.32 10.66 30 11 C28.68 11 27.36 11 26 11 C26 10.34 26 9.68 26 9 C25.01 9.66 24.02 10.32 23 11 C22.01 11 21.02 11 20 11 C20 10.34 20 9.68 20 9 C16.7 8.67 13.4 8.34 10 8 C11.32 7.67 12.64 7.34 14 7 C14 6.01 14 5.02 14 4 C13.11248047 3.92652344 13.11248047 3.92652344 12.20703125 3.8515625 C7.80895528 3.43543133 4.03071103 2.95034405 0 1 C0 0.67 0 0.34 0 0 Z " fill="#4B4C4D" transform="translate(570,357)"/>
<path d="M0 0 C3.3 0 6.6 0 10 0 C10.66 0.66 11.32 1.32 12 2 C10 3 10 3 3 3 C3.33 8.61 3.66 14.22 4 20 C3.01 20 2.02 20 1 20 C0.67 20.66 0.34 21.32 0 22 C0 14.74 0 7.48 0 0 Z " fill="#1D1D1D" transform="translate(353,683)"/>
<path d="M0 0 C0.33 0 0.66 0 1 0 C1.02505615 1.05501709 1.0501123 2.11003418 1.07592773 3.19702148 C1.16984109 7.09770628 1.27010034 10.99820625 1.37231445 14.89868164 C1.41572439 16.58939299 1.45739489 18.28014991 1.49731445 19.97094727 C1.55487094 22.39613606 1.61860649 24.82109415 1.68359375 27.24609375 C1.70030624 28.00651474 1.71701874 28.76693573 1.73423767 29.55039978 C1.52091268 33.07082031 1.52091268 33.07082031 3 36 C3.32381508 38.05769762 3.60887747 40.12154877 3.875 42.1875 C4.73655027 48.05118545 5.69872439 52.69872439 10 57 C9.67 57.99 9.34 58.98 9 60 C8.505 58.515 8.505 58.515 8 57 C7.34 57 6.68 57 6 57 C5.54625 55.9275 5.0925 54.855 4.625 53.75 C3.78672617 51.76898495 2.95619216 49.92455316 1.875 48.0625 C-0.60078785 42.22671435 -0.13844024 35.1480709 -0.09765625 28.90625 C-0.0962413 28.07411987 -0.09482635 27.24198975 -0.09336853 26.38464355 C-0.08782167 23.7563907 -0.07527945 21.12822662 -0.0625 18.5 C-0.05747812 16.70573041 -0.05291642 14.91145946 -0.04882812 13.1171875 C-0.03786972 8.74475805 -0.02064248 4.37239402 0 0 Z " fill="#262729" transform="translate(499,608)"/>
<path d="M0 0 C0.66 0.33 1.32 0.66 2 1 C1.125 4.875 1.125 4.875 0 6 C-1.1180123 12.77546633 -1.21393237 19.51977812 -1.31640625 26.375 C-1.33718735 27.5400708 -1.35796844 28.7051416 -1.37937927 29.90551758 C-1.44442622 33.60362211 -1.50355006 37.30179376 -1.5625 41 C-1.60572793 43.51693384 -1.64934354 46.03386106 -1.69335938 48.55078125 C-1.80006128 54.70045122 -1.90190853 60.85018699 -2 67 C-2.33 67 -2.66 67 -3 67 C-3 46.54 -3 26.08 -3 5 C-2.34 5 -1.68 5 -1 5 C-0.67 3.35 -0.34 1.7 0 0 Z " fill="#202123" transform="translate(502,373)"/>
<path d="M0 0 C2.64 0.33 5.28 0.66 8 1 C7.01 1.495 7.01 1.495 6 2 C6.33 2.66 6.66 3.32 7 4 C9.97 4 12.94 4 16 4 C14.02 4.99 14.02 4.99 12 6 C12 6.66 12 7.32 12 8 C12.99 8.33 13.98 8.66 15 9 C14.34 10.65 13.68 12.3 13 14 C11.84775972 13.07038578 10.70340824 12.1309875 9.5625 11.1875 C8.60537109 10.40439453 8.60537109 10.40439453 7.62890625 9.60546875 C6 8 6 8 5 5 C4.34 4.67 3.68 4.34 3 4 C1 3 1 3 0 0 Z " fill="#737574" transform="translate(666,428)"/>
<path d="M0 0 C4.49699606 3.65461928 8.62848394 7.25880554 12 12 C11.67 12.99 11.34 13.98 11 15 C10.21625 14.979375 9.4325 14.95875 8.625 14.9375 C6.01885039 14.81315937 6.01885039 14.81315937 4 16 C4 14.02 4 12.04 4 10 C3.34 10 2.68 10 2 10 C-0.09350689 6.5980513 -0.17942163 3.94727588 0 0 Z " fill="#616566" transform="translate(672,322)"/>
<path d="M0 0 C3.16012613 0.33858494 3.95432113 0.94601588 6.0625 3.4375 C6.701875 4.283125 7.34125 5.12875 8 6 C8.99 6.66 9.98 7.32 11 8 C11 8.66 11 9.32 11 10 C11.99 10.33 12.98 10.66 14 11 C14 11.66 14 12.32 14 13 C13.34 13 12.68 13 12 13 C12 12.34 12 11.68 12 11 C11.030625 10.731875 10.06125 10.46375 9.0625 10.1875 C7.5465625 9.5996875 7.5465625 9.5996875 6 9 C5.67 8.01 5.34 7.02 5 6 C1.18699218 9.2870757 -0.22972246 12.39727838 -2 17 C-3.10030227 13.66035015 -2.87633055 11.34936408 -2.125 7.9375 C-1.94195313 7.08027344 -1.75890625 6.22304688 -1.5703125 5.33984375 C-1 3 -1 3 0 0 Z " fill="#1A1B1A" transform="translate(706,605)"/>
<path d="M0 0 C0.33 0.99 0.66 1.98 1 3 C1.99 3.33 2.98 3.66 4 4 C4.33 5.65 4.66 7.3 5 9 C-1.93 8.505 -1.93 8.505 -9 8 C-9 7.34 -9 6.68 -9 6 C-9.62648438 5.95101563 -10.25296875 5.90203125 -10.8984375 5.8515625 C-11.71570313 5.77679688 -12.53296875 5.70203125 -13.375 5.625 C-14.59316406 5.52058594 -14.59316406 5.52058594 -15.8359375 5.4140625 C-18 5 -18 5 -20 3 C-17.03 3 -14.06 3 -11 3 C-11 3.66 -11 4.32 -11 5 C-5.555 4.01 -5.555 4.01 0 3 C0 2.01 0 1.02 0 0 Z " fill="#656668" transform="translate(397,369)"/>
<path d="M0 0 C0.680625 0.721875 1.36125 1.44375 2.0625 2.1875 C6.40569768 6.518394 11.13716002 10.04572001 17 12 C15.8125 13.5625 15.8125 13.5625 14 15 C11.5 14.6875 11.5 14.6875 9 14 C8.01 14 7.02 14 6 14 C6 12.02 6 10.04 6 8 C3.69 7.67 1.38 7.34 -1 7 C-0.67 4.69 -0.34 2.38 0 0 Z " fill="#DCDCDC" transform="translate(490,672)"/>
<path d="M0 0 C7.59 0.33 15.18 0.66 23 1 C22.67 1.99 22.34 2.98 22 4 C14.41 4 6.82 4 -1 4 C-0.67 2.68 -0.34 1.36 0 0 Z " fill="#060708" transform="translate(532,681)"/>
<path d="M0 0 C3.35620271 1.38877354 5.07298728 2.91677965 7 6 C7 6.66 7 7.32 7 8 C7.58265625 8.24492187 8.1653125 8.48984375 8.765625 8.7421875 C11.36302236 10.20435874 12.83975831 11.84740414 14.75 14.125 C15.36359375 14.84945313 15.9771875 15.57390625 16.609375 16.3203125 C17.06828125 16.87460937 17.5271875 17.42890625 18 18 C17.01 19.32 16.02 20.64 15 22 C15 21.01 15 20.02 15 19 C14.34 18.34 13.68 17.68 13 17 C12.67 16.01 12.34 15.02 12 14 C11.34 13.67 10.68 13.34 10 13 C10 12.34 10 11.68 10 11 C9.01 11 8.02 11 7 11 C7 10.34 7 9.68 7 9 C6.01 9 5.02 9 4 9 C0 3.85714286 0 3.85714286 0 0 Z " fill="#7D7E80" transform="translate(684,335)"/>
<path d="M0 0 C0 0.99 0 1.98 0 3 C-0.98395752 2.99476318 -1.96791504 2.98952637 -2.98168945 2.98413086 C-6.63255911 2.96602971 -10.28342479 2.95454925 -13.93432617 2.94506836 C-15.51441108 2.94003986 -17.09449134 2.93321622 -18.67456055 2.92456055 C-20.94581246 2.91243008 -23.21700285 2.90675687 -25.48828125 2.90234375 C-26.19463211 2.89718246 -26.90098297 2.89202118 -27.6287384 2.88670349 C-30.70254391 2.88635197 -33.0590442 3.0196814 -36 4 C-36 3.01 -36 2.02 -36 1 C-24.12 0.67 -12.24 0.34 0 0 Z " fill="#2B2C2C" transform="translate(676,718)"/>
<path d="M0 0 C3 2.5625 3 2.5625 5 5 C-0.81209283 6.93736428 -7.40990605 4.00670039 -13 2 C-8.422675 -1.05155 -5.34104126 -1.54205971 0 0 Z " fill="#747577" transform="translate(616,376)"/>
<path d="M0 0 C8.25 0 16.5 0 25 0 C25 0.33 25 0.66 25 1 C19.98391475 2.0176403 15.21391694 2.11856434 10.125 2.0625 C9.34125 2.05798828 8.5575 2.05347656 7.75 2.04882812 C5.83329986 2.03714093 3.91663952 2.01920908 2 2 C1.34 3.98 0.68 5.96 0 8 C-0.33 8 -0.66 8 -1 8 C-0.67 5.36 -0.34 2.72 0 0 Z " fill="#4D4D4D" transform="translate(674,593)"/>
<path d="M0 0 C0.99 0.33 1.98 0.66 3 1 C2 4 2 4 0 5 C-0.144375 5.763125 -0.28875 6.52625 -0.4375 7.3125 C-1.09084504 10.4340374 -1.7063466 11.78280172 -4 14 C-7.6875 15.25 -7.6875 15.25 -11 16 C-9.6696875 14.5459375 -9.6696875 14.5459375 -8.3125 13.0625 C-4.85505071 9.05481531 -2.40573888 4.69438427 0 0 Z " fill="#989898" transform="translate(973,960)"/>
<path d="M0 0 C0.66 0.33 1.32 0.66 2 1 C1.53031881 6.63617433 0.09327687 11.21417541 -3 16 C-3.66 16.33 -4.32 16.66 -5 17 C-5 13.37 -5 9.74 -5 6 C-4.01 6.33 -3.02 6.66 -2 7 C-1.22227595 4.66682784 -0.57584432 2.38564077 0 0 Z " fill="#D5D5D5" transform="translate(398,650)"/>
<path d="M0 0 C0.66 0 1.32 0 2 0 C3.04561053 3.13683158 2.96053276 4.47866796 2.5625 7.6875 C1.95585241 13.35207189 1.95570553 18.91843767 2.12524414 24.60424805 C2.19066284 28.33219897 2.13012252 29.80481622 0 33 C0 22.11 0 11.22 0 0 Z " fill="#222325" transform="translate(672,384)"/>
<path d="M0 0 C1.98 0 3.96 0 6 0 C6.268125 0.639375 6.53625 1.27875 6.8125 1.9375 C7.88667752 4.33131686 7.88667752 4.33131686 11 5 C11.99 6.485 11.99 6.485 13 8 C13.66 8.66 14.32 9.32 15 10 C12.17379401 10.51385563 10.50996394 10.34138082 8.109375 8.734375 C6.3001174 7.21930562 4.57825781 5.75564125 3 4 C3 3.34 3 2.68 3 2 C2.01 1.67 1.02 1.34 0 1 C0 0.67 0 0.34 0 0 Z " fill="#585858" transform="translate(373,720)"/>
<path d="M0 0 C2.23551759 3.35327639 2.17283528 3.90743657 1.625 7.6875 C1.45871094 8.89986328 1.45871094 8.89986328 1.2890625 10.13671875 C1.19367187 10.75160156 1.09828125 11.36648438 1 12 C0.34 12 -0.32 12 -1 12 C-1.66 11.01 -2.32 10.02 -3 9 C-3.66 9 -4.32 9 -5 9 C-5 9.66 -5 10.32 -5 11 C-5.99 10.67 -6.98 10.34 -8 10 C-7.50628906 9.44570313 -7.01257813 8.89140625 -6.50390625 8.3203125 C-5.86324219 7.59585938 -5.22257813 6.87140625 -4.5625 6.125 C-3.92441406 5.40570312 -3.28632812 4.68640625 -2.62890625 3.9453125 C-0.94985535 2.09249509 -0.94985535 2.09249509 0 0 Z " fill="#E2E2E2" transform="translate(654,633)"/>
<path d="M0 0 C0.33 0 0.66 0 1 0 C0.88623383 2.12563103 0.75864369 4.2505261 0.625 6.375 C0.55539062 7.55835938 0.48578125 8.74171875 0.4140625 9.9609375 C0 13 0 13 -2 15 C-2.88778692 16.96488831 -2.88778692 16.96488831 -3.625 19.125 C-3.88539063 19.84945312 -4.14578125 20.57390625 -4.4140625 21.3203125 C-4.60742188 21.87460937 -4.80078125 22.42890625 -5 23 C-7.35866384 15.92400847 -3.18039282 6.51223291 0 0 Z " fill="#18191B" transform="translate(685,684)"/>
<path d="M0 0 C2.97 0.495 2.97 0.495 6 1 C6 1.66 6 2.32 6 3 C6.66 3 7.32 3 8 3 C8 3.66 8 4.32 8 5 C8.66 5.33 9.32 5.66 10 6 C10 6.66 10 7.32 10 8 C11.29233607 9.37310707 12.62437146 10.71034824 14 12 C13.01 12.495 13.01 12.495 12 13 C12 12.34 12 11.68 12 11 C11.42765625 10.75378906 10.8553125 10.50757813 10.265625 10.25390625 C7.63481257 8.79788765 5.85191095 7.08222766 3.75 4.9375 C3.04359375 4.22464844 2.3371875 3.51179687 1.609375 2.77734375 C0 1 0 1 0 0 Z " fill="#8E8F8F" transform="translate(391,736)"/>
<path d="M0 0 C0 0.99 0 1.98 0 3 C-5.07476794 4.26305335 -9.72796354 5.27036084 -15 5 C-15 4.34 -15 3.68 -15 3 C-13.68 3 -12.36 3 -11 3 C-11 2.34 -11 1.68 -11 1 C-7.27569643 0.30710631 -3.78916254 -0.11144596 0 0 Z " fill="#151515" transform="translate(581,679)"/>
<path d="M0 0 C0 0.66 0 1.32 0 2 C-0.9590625 2.1546875 -0.9590625 2.1546875 -1.9375 2.3125 C-2.618125 2.539375 -3.29875 2.76625 -4 3 C-4.33 3.99 -4.66 4.98 -5 6 C-6.65 6 -8.3 6 -10 6 C-10 2 -10 2 -9 0 C-5.65506316 -0.99444068 -3.31044803 -1.10348268 0 0 Z " fill="#D8D8D8" transform="translate(592,681)"/>
<path d="M0 0 C2.31 0 4.62 0 7 0 C7 1.32 7 2.64 7 4 C4.12645755 6.17457267 2.63563409 7 -1 7 C-0.67 4.69 -0.34 2.38 0 0 Z " fill="#111111" transform="translate(693,594)"/>
<path d="M0 0 C0.66 0 1.32 0 2 0 C1.26984513 6.42536288 0.02630841 12.85320799 -2 19 C-2.66 19.33 -3.32 19.66 -4 20 C-1.81818182 3.63636364 -1.81818182 3.63636364 0 0 Z " fill="#1D1F1F" transform="translate(690,664)"/>
<path d="M0 0 C0.969375 0.144375 1.93875 0.28875 2.9375 0.4375 C7.28052169 1.06047442 11.63765234 1.53507859 16 2 C15.0409375 2.1546875 15.0409375 2.1546875 14.0625 2.3125 C13.381875 2.539375 12.70125 2.76625 12 3 C11.67 3.99 11.34 4.98 11 6 C8.3125 6.375 8.3125 6.375 5 6 C2.93601924 4.176017 1.60958947 2.27236161 0 0 Z " fill="#6C6E6E" transform="translate(660,423)"/>
<path d="M0 0 C3.28788824 3.11016455 5.83735988 6.01618925 8 10 C6.02 10.66 4.04 11.32 2 12 C0.40861915 7.82262526 -0.21278058 4.46839215 0 0 Z " fill="#171818" transform="translate(640,375)"/>
<path d="M0 0 C0.33 0 0.66 0 1 0 C1.33776684 1.7491497 1.67003671 3.49936145 2 5.25 C2.185625 6.22453125 2.37125 7.1990625 2.5625 8.203125 C3 11 3 11 3 15 C1.68 14.67 0.36 14.34 -1 14 C-2.12029814 8.51053913 -1.79217969 5.16569441 0 0 Z " fill="#D2D2D2" transform="translate(482,646)"/>
<path d="M0 0 C0.99 0.99 1.98 1.98 3 3 C2.67 4.32 2.34 5.64 2 7 C-0.64 7.66 -3.28 8.32 -6 9 C-4.02 6.03 -2.04 3.06 0 0 Z " fill="#DCDCDC" transform="translate(661,624)"/>
<path d="M0 0 C2 3 2 3 1.828125 5.0078125 C1.63734375 5.70648437 1.4465625 6.40515625 1.25 7.125 C1.06953125 7.82882812 0.8890625 8.53265625 0.703125 9.2578125 C0 11 0 11 -2 12 C-3.87379605 12.07033769 -5.75001102 12.0843022 -7.625 12.0625 C-8.62789062 12.05347656 -9.63078125 12.04445313 -10.6640625 12.03515625 C-11.43492187 12.02355469 -12.20578125 12.01195312 -13 12 C-13 11.67 -13 11.34 -13 11 C-9.7 11 -6.4 11 -3 11 C-2.87625 10.29875 -2.7525 9.5975 -2.625 8.875 C-1.96161655 5.82343613 -1.02788045 2.94659062 0 0 Z " fill="#171919" transform="translate(678,707)"/>
<path d="M0 0 C2.03833424 1.2739589 4.03852126 2.61061923 6 4 C6 4.66 6 5.32 6 6 C6.66 6 7.32 6 8 6 C8.33 7.65 8.66 9.3 9 11 C5.78475695 9.59155282 3.67816132 7.89655214 1.25 5.375 C0.63640625 4.74335937 0.0228125 4.11171875 -0.609375 3.4609375 C-1.06828125 2.97882812 -1.5271875 2.49671875 -2 2 C-1.34 1.34 -0.68 0.68 0 0 Z " fill="#1C1C1C" transform="translate(356,709)"/>
<path d="M0 0 C0 4.13781054 -1.71509607 5.20919996 -4.5 8.1875 C-5.3353125 9.08855469 -6.170625 9.98960937 -7.03125 10.91796875 C-7.6809375 11.60503906 -8.330625 12.29210937 -9 13 C-9.93423645 9.98968256 -10.04449911 9.13349732 -9 6 C-8.01 6 -7.02 6 -6 6 C-5.67 5.01 -5.34 4.02 -5 3 C-2.4375 1.3125 -2.4375 1.3125 0 0 Z " fill="#B7B7B7" transform="translate(906,898)"/>
<path d="M0 0 C0.33 0 0.66 0 1 0 C0.39700836 7.23589973 -1.1150587 13.99370876 -3 21 C-3.33 21 -3.66 21 -4 21 C-4.21544006 15.76884607 -3.52370193 11.56214697 -2 6.5625 C-1.62875 5.32628906 -1.2575 4.09007812 -0.875 2.81640625 C-0.58625 1.88699219 -0.2975 0.95757813 0 0 Z " fill="#1F2023" transform="translate(702,622)"/>
<path d="M0 0 C1.32 0 2.64 0 4 0 C4 0.66 4 1.32 4 2 C6.31 2 8.62 2 11 2 C11 2.99 11 3.98 11 5 C10.34 5.66 9.68 6.32 9 7 C7.1875 7 7.1875 7 5 6 C3.1543032 4.10171925 1.61598185 2.10975408 0 0 Z " fill="#6E6F71" transform="translate(366,366)"/>
<path d="M0 0 C0.99 0 1.98 0 3 0 C1.76250343 3.42691357 0.5489363 6.35302769 -2 9 C-3.32 9 -4.64 9 -6 9 C-4.4705003 5.55862568 -2.54630448 2.7777867 0 0 Z " fill="#171717" transform="translate(656,626)"/>
<path d="M0 0 C3 1 3 1 4 3 C4.66 2.67 5.32 2.34 6 2 C5.6875 3.875 5.6875 3.875 5 6 C4.01 6.66 3.02 7.32 2 8 C0.4375 6.8125 0.4375 6.8125 -1 5 C-0.6875 2.3125 -0.6875 2.3125 0 0 Z " fill="#D7D7D7" transform="translate(625,648)"/>
<path d="M0 0 C1.65 0 3.3 0 5 0 C7.09230769 4.43076923 7.09230769 4.43076923 6.625 7.3125 C6.41875 7.869375 6.2125 8.42625 6 9 C5.34 8.67 4.68 8.34 4 8 C4 6.68 4 5.36 4 4 C2.68 3.67 1.36 3.34 0 3 C0 2.01 0 1.02 0 0 Z " fill="#7E8080" transform="translate(396,377)"/>
<path d="M0 0 C2.97 0 5.94 0 9 0 C9 0.66 9 1.32 9 2 C10.98 2 12.96 2 15 2 C15.33 2.99 15.66 3.98 16 5 C14.35 5 12.7 5 11 5 C11 4.34 11 3.68 11 3 C10.37351562 2.95101563 9.74703125 2.90203125 9.1015625 2.8515625 C8.28429687 2.77679688 7.46703125 2.70203125 6.625 2.625 C5.40683594 2.52058594 5.40683594 2.52058594 4.1640625 2.4140625 C2 2 2 2 0 0 Z M15 1 C17 2 17 2 17 2 Z " fill="#717274" transform="translate(377,372)"/>
<path d="M0 0 C1.65 0 3.3 0 5 0 C5.66 1.32 6.32 2.64 7 4 C8.65 4 10.3 4 12 4 C11.67 4.99 11.34 5.98 11 7 C12.32 7.33 13.64 7.66 15 8 C9.33303323 8.87184104 6.24643982 6.57430047 1.7578125 3.5078125 C1.17773438 3.01023437 0.59765625 2.51265625 0 2 C0 1.34 0 0.68 0 0 Z " fill="#404143" transform="translate(512,672)"/>
<path d="M0 0 C-0.33 1.65 -0.66 3.3 -1 5 C-1.66 5 -2.32 5 -3 5 C-3.598125 6.11375 -4.19625 7.2275 -4.8125 8.375 C-6.37695617 11.28812528 -7.09907498 12.06604999 -10 14 C-8.81543972 10.8411726 -7.46399962 7.78725295 -6 4.75 C-5.67 4.06421875 -5.34 3.3784375 -5 2.671875 C-3.63423574 0.38848788 -2.63709461 0 0 0 Z " fill="#DDDDDD" transform="translate(676,603)"/>
<path d="M0 0 C0.66 0.33 1.32 0.66 2 1 C2 1.66 2 2.32 2 3 C0.36395804 4.37073786 -1.30678061 5.70055256 -3 7 C-4.0173873 7.98230498 -5.02596117 8.97469597 -6 10 C-6.66 9.01 -7.32 8.02 -8 7 C-5.36 4.69 -2.72 2.38 0 0 Z " fill="#DADADA" transform="translate(639,650)"/>
<path d="M0 0 C6.88831341 -0.62621031 12.58902255 1.64193933 19 4 C12.83911328 6.00620099 5.70163792 3.66076436 0 1 C0 0.67 0 0.34 0 0 Z " fill="#2A2B2D" transform="translate(570,357)"/>
<path d="M0 0 C0 0.99 0 1.98 0 3 C-1.65 3 -3.3 3 -5 3 C-5 2.34 -5 1.68 -5 1 C-9.62 1 -14.24 1 -19 1 C-19 0.67 -19 0.34 -19 0 C-16.39619004 -0.19476139 -13.79224467 -0.38108614 -11.1875 -0.5625 C-10.44951172 -0.61857422 -9.71152344 -0.67464844 -8.95117188 -0.73242188 C-5.63211484 -0.95769724 -3.18767436 -1.06255812 0 0 Z " fill="#E2E2E2" transform="translate(949,974)"/>
<path d="M0 0 C3.25543229 0.34879632 4.01873107 1.02133261 6.25 3.5625 C6.8275 4.366875 7.405 5.17125 8 6 C5.66705225 6.04241723 3.33297433 6.04092937 1 6 C0 5 0 5 -0.0625 2.4375 C-0.041875 1.633125 -0.02125 0.82875 0 0 Z " fill="#959595" transform="translate(624,386)"/>
<path d="M0 0 C0.66 0.33 1.32 0.66 2 1 C1.45730469 1.50789063 0.91460938 2.01578125 0.35546875 2.5390625 C-3.71094239 6.45160944 -6.89477656 9.7369414 -9 15 C-10 12 -10 12 -9.07421875 9.95703125 C-8.61660156 9.24933594 -8.15898437 8.54164063 -7.6875 7.8125 C-7.23761719 7.09707031 -6.78773438 6.38164062 -6.32421875 5.64453125 C-5.88722656 5.10183594 -5.45023437 4.55914062 -5 4 C-4.34 4 -3.68 4 -3 4 C-3 3.34 -3 2.68 -3 2 C-2.01 1.34 -1.02 0.68 0 0 Z " fill="#1F2023" transform="translate(513,358)"/>
<path d="M0 0 C0.99 0.66 1.98 1.32 3 2 C1.68 4.31 0.36 6.62 -1 9 C-2.32 8.34 -3.64 7.68 -5 7 C-3.35 4.69 -1.7 2.38 0 0 Z " fill="#2C2C2C" transform="translate(661,618)"/>
<path d="M0 0 C1.1725131 0.95117134 2.33787015 1.91117009 3.5 2.875 C4.47453125 3.67550781 4.47453125 3.67550781 5.46875 4.4921875 C5.9740625 4.98976563 6.479375 5.48734375 7 6 C7 6.66 7 7.32 7 8 C7.99 8.33 8.98 8.66 10 9 C10 9.66 10 10.32 10 11 C9.34 11 8.68 11 8 11 C8 10.34 8 9.68 8 9 C7.05125 8.814375 6.1025 8.62875 5.125 8.4375 C2 7 2 7 0.625 3.375 C0.41875 2.26125 0.2125 1.1475 0 0 Z " fill="#585A5A" transform="translate(710,607)"/>
<path d="M0 0 C1.98 0.66 3.96 1.32 6 2 C5.34 3.65 4.68 5.3 4 7 C2.68 6.67 1.36 6.34 0 6 C-0.38218767 4.34385343 -0.71395102 2.67542976 -1 1 C-0.67 0.67 -0.34 0.34 0 0 Z " fill="#F7F9F8" transform="translate(641,369)"/>
<path d="M0 0 C4.13937592 3.30015998 7.58662205 6.17324411 10 11 C9.01 11.99 8.02 12.98 7 14 C7 13.01 7 12.02 7 11 C6.34 10.34 5.68 9.68 5 9 C4.67 8.01 4.34 7.02 4 6 C3.319375 5.319375 2.63875 4.63875 1.9375 3.9375 C1.298125 3.298125 0.65875 2.65875 0 2 C0 1.34 0 0.68 0 0 Z " fill="#99999B" transform="translate(692,343)"/>
<path d="M0 0 C2.64752004 2.57784846 4.94432065 4.91648098 7 8 C3.95613276 8.08226668 1.92824652 7.97608217 -1 7 C-0.67 4.69 -0.34 2.38 0 0 Z " fill="#D3D3D3" transform="translate(490,672)"/>
<path d="M0 0 C0.99 0 1.98 0 3 0 C3 0.66 3 1.32 3 2 C3.66 2 4.32 2 5 2 C3.52307692 6.67692308 3.52307692 6.67692308 0.875 8.3125 C-0.053125 8.6528125 -0.053125 8.6528125 -1 9 C-1.08886184 5.80097361 -0.91058531 3.07322544 0 0 Z " fill="#DDDDDD" transform="translate(657,614)"/>
<path d="M0 0 C3.125 0.375 3.125 0.375 6 1 C5.34 2.98 4.68 4.96 4 7 C2.02 5.35 0.04 3.7 -2 2 C-1.34 1.34 -0.68 0.68 0 0 Z " fill="#939395" transform="translate(675,435)"/>
<path d="M0 0 C1.32 0.66 2.64 1.32 4 2 C2.35 3.98 0.7 5.96 -1 8 C-1.33 7.34 -1.66 6.68 -2 6 C-2.66 5.67 -3.32 5.34 -4 5 C-2.68 3.35 -1.36 1.7 0 0 Z " fill="#282828" transform="translate(649,634)"/>
<path d="M0 0 C2 1.0625 2 1.0625 4 3 C4.25 6.6875 4.25 6.6875 4 10 C3.34 10 2.68 10 2 10 C-0.09350689 6.5980513 -0.17942163 3.94727588 0 0 Z " fill="#434444" transform="translate(672,322)"/>
<path d="M0 0 C0.99 0.33 1.98 0.66 3 1 C2 3 2 3 -1.25 4.75 C-5 6 -5 6 -7.9375 5.1875 C-8.618125 4.795625 -9.29875 4.40375 -10 4 C-10 3.67 -10 3.34 -10 3 C-6.97265625 2.26757812 -6.97265625 2.26757812 -3.9453125 1.53515625 C-1.9414343 1.05153008 -1.9414343 1.05153008 0 0 Z " fill="#CFCFCF" transform="translate(397,681)"/>
<path d="M0 0 C1 3 1 3 -0.125 5.4375 C-2.13592027 8.1857577 -4.25910398 9.99988669 -7 12 C-7.66 11.67 -8.32 11.34 -9 11 C-8.43410156 10.37351562 -7.86820312 9.74703125 -7.28515625 9.1015625 C-6.18494141 7.87566406 -6.18494141 7.87566406 -5.0625 6.625 C-4.33160156 5.81289063 -3.60070312 5.00078125 -2.84765625 4.1640625 C-0.97010529 2.14075833 -0.97010529 2.14075833 0 0 Z " fill="#252525" transform="translate(396,663)"/>
<path d="M0 0 C-0.639375 0.28875 -1.27875 0.5775 -1.9375 0.875 C-4.15206079 1.82823451 -4.15206079 1.82823451 -5 4 C-6.65 4 -8.3 4 -10 4 C-10 3.01 -10 2.02 -10 1 C-6.61981469 -0.04005702 -3.5219721 -0.08004482 0 0 Z " fill="#7F7E81" transform="translate(682,432)"/>
<path d="M0 0 C2.61885488 2.36944013 4.41866551 4.83733102 6 8 C5.67 8.99 5.34 9.98 5 11 C1.92893485 9.46446743 1.32812424 7.07883346 0 4 C0 2.68 0 1.36 0 0 Z " fill="#252525" transform="translate(648,386)"/>
<path d="M0 0 C0.99 0 1.98 0 3 0 C3 2.97 3 5.94 3 9 C2.34 9 1.68 9 1 9 C-0.4783226 6.04335481 -0.06032783 3.25770263 0 0 Z " fill="#9C9E9D" transform="translate(400,386)"/>
<path d="M0 0 C0.66 0.33 1.32 0.66 2 1 C2 1.66 2 2.32 2 3 C2.66 3 3.32 3 4 3 C4.66 4.32 5.32 5.64 6 7 C4.1875 7.6875 4.1875 7.6875 2 8 C0.1875 6.875 0.1875 6.875 -1 5 C-0.6875 2.3125 -0.6875 2.3125 0 0 Z " fill="#191B1A" transform="translate(634,368)"/>
<path d="M0 0 C3.81684226 1.55500981 6.19195732 4.03595495 9 7 C8.67 7.66 8.34 8.32 8 9 C5 8 5 8 3.8125 5.9375 C3.544375 5.298125 3.27625 4.65875 3 4 C2.01 4 1.02 4 0 4 C0 2.68 0 1.36 0 0 Z " fill="#D3D3D3" transform="translate(353,711)"/>
<path d="M0 0 C0.99 0.33 1.98 0.66 3 1 C2.01 1.495 2.01 1.495 1 2 C1 2.66 1 3.32 1 4 C2.32 3.67 3.64 3.34 5 3 C3.8125 4.5 3.8125 4.5 2 6 C-0.6875 6.1875 -0.6875 6.1875 -3 6 C-3 5.34 -3 4.68 -3 4 C-2.34 4 -1.68 4 -1 4 C-0.67 2.68 -0.34 1.36 0 0 Z " fill="#D9D9D9" transform="translate(377,673)"/>
<path d="M0 0 C-0.1875 1.875 -0.1875 1.875 -1 4 C-3.5625 5.25 -3.5625 5.25 -6 6 C-6.33 5.01 -6.66 4.02 -7 3 C-3.375 0 -3.375 0 0 0 Z " fill="#171717" transform="translate(637,650)"/>
<path d="M0 0 C4.62 0 9.24 0 14 0 C13.67 0.66 13.34 1.32 13 2 C11.906875 1.979375 10.81375 1.95875 9.6875 1.9375 C6.05615809 1.81455548 6.05615809 1.81455548 3 3 C2.01 2.01 1.02 1.02 0 0 Z " fill="#3F4041" transform="translate(653,416)"/>
<path d="M0 0 C1.98 0.495 1.98 0.495 4 1 C5.125 4.75 5.125 4.75 4 7 C2.0625 6.1875 2.0625 6.1875 0 5 C-0.33 4.01 -0.66 3.02 -1 2 C-0.67 1.34 -0.34 0.68 0 0 Z " fill="#D9D9D9" transform="translate(667,311)"/>
<path d="M0 0 C0.33 1.32 0.66 2.64 1 4 C-1.31 4.33 -3.62 4.66 -6 5 C-6 3.68 -6 2.36 -6 1 C-3 0 -3 0 0 0 Z " fill="#252525" transform="translate(587,677)"/>
<path d="M0 0 C0.99 0.33 1.98 0.66 3 1 C2.65120368 4.25543229 1.97866739 5.01873107 -0.5625 7.25 C-1.7690625 8.11625 -1.7690625 8.11625 -3 9 C-3.66 8.67 -4.32 8.34 -5 8 C-4.34 7.01 -3.68 6.02 -3 5 C-2.34 5 -1.68 5 -1 5 C-0.67 3.35 -0.34 1.7 0 0 Z " fill="#D5D5D5" transform="translate(388,667)"/>
<path d="M0 0 C1.04702186 3.7264085 1.07442057 7.13013042 1 11 C0.01 11.495 0.01 11.495 -1 12 C-2.1875 10.5 -2.1875 10.5 -3 8 C-2.27101296 5.21175762 -1.1843275 2.62334908 0 0 Z " fill="#BDBDBD" transform="translate(415,656)"/>
<path d="M0 0 C3 1.8125 3 1.8125 6 4 C6 4.99 6 5.98 6 7 C5.01 6.34 4.02 5.68 3 5 C2.01 5.66 1.02 6.32 0 7 C0 4.69 0 2.38 0 0 Z " fill="#1C1E1D" transform="translate(625,360)"/>
<path d="M0 0 C2.475 0.495 2.475 0.495 5 1 C4.67 2.32 4.34 3.64 4 5 C2.68 5.33 1.36 5.66 0 6 C0 4.02 0 2.04 0 0 Z " fill="#454A4A" transform="translate(676,332)"/>
<path d="M0 0 C0.33 0 0.66 0 1 0 C0.9131724 2.12577907 0.8050049 4.25069581 0.6875 6.375 C0.62949219 7.55835938 0.57148437 8.74171875 0.51171875 9.9609375 C0.34285156 10.96382812 0.17398438 11.96671875 0 13 C-0.99 13.66 -1.98 14.32 -3 15 C-2.22095672 4.44191344 -2.22095672 4.44191344 0 0 Z " fill="#212225" transform="translate(685,684)"/>
<path d="M0 0 C0.66 0 1.32 0 2 0 C1.34 3.3 0.68 6.6 0 10 C-2.14915785 6.77626323 -2.38286803 5.73296326 -2 2 C-1.34 1.34 -0.68 0.68 0 0 Z " fill="#D2D2D2" transform="translate(666,686)"/>
<path d="M0 0 C-0.33 0.99 -0.66 1.98 -1 3 C-2.32 2.67 -3.64 2.34 -5 2 C-5 2.66 -5 3.32 -5 4 C-6.32 3.34 -7.64 2.68 -9 2 C-3.375 -1.125 -3.375 -1.125 0 0 Z " fill="#CECECE" transform="translate(608,674)"/>
<path d="M0 0 C0.66 0 1.32 0 2 0 C2.33 1.32 2.66 2.64 3 4 C0 6 0 6 -2.1875 5.625 C-2.785625 5.41875 -3.38375 5.2125 -4 5 C-2.71937515 3.2925002 -1.38232443 1.62626404 0 0 Z " fill="#CFCFCF" transform="translate(604,665)"/>
<path d="M0 0 C0.66 0.33 1.32 0.66 2 1 C2.625 3.5625 2.625 3.5625 3 6 C0.525 7.485 0.525 7.485 -2 9 C-1.34 6.03 -0.68 3.06 0 0 Z " fill="#323332" transform="translate(708,605)"/>
<path d="M0 0 C0 0.66 0 1.32 0 2 C-1.32 2 -2.64 2 -4 2 C-4 2.99 -4 3.98 -4 5 C-6.97 4.505 -6.97 4.505 -10 4 C-4 0 -4 0 0 0 Z " fill="#969696" transform="translate(959,978)"/>
<path d="M0 0 C0 0.66 0 1.32 0 2 C-2.64738916 3.4606285 -3.89448334 4 -7 4 C-7 3.34 -7 2.68 -7 2 C-7.66 1.67 -8.32 1.34 -9 1 C-6.04335481 -0.4783226 -3.25770263 -0.06032783 0 0 Z " fill="#696A6C" transform="translate(406,733)"/>
<path d="M0 0 C0.99 0.66 1.98 1.32 3 2 C2.67 2.99 2.34 3.98 2 5 C-0.375 5.1875 -0.375 5.1875 -3 5 C-3.66 4.01 -4.32 3.02 -5 2 C-2.6875 0.875 -2.6875 0.875 0 0 Z " fill="#646869" transform="translate(389,728)"/>
<path d="M0 0 C0 0.66 0 1.32 0 2 C-1.98 2.66 -3.96 3.32 -6 4 C-6 3.34 -6 2.68 -6 2 C-6.66 1.67 -7.32 1.34 -8 1 C-4.93251126 -0.86240388 -3.40254489 -1.2151946 0 0 Z " fill="#222222" transform="translate(612,669)"/>
<path d="M0 0 C0.93065133 2.60582371 1.14917407 3.64198224 0.0625 6.25 C-0.4634375 7.11625 -0.4634375 7.11625 -1 8 C-1.99 8 -2.98 8 -4 8 C-2.25 2.25 -2.25 2.25 0 0 Z " fill="#1A1A1A" transform="translate(666,611)"/>
<path d="M0 0 C1.65 0 3.3 0 5 0 C5.66 1.32 6.32 2.64 7 4 C4.37886292 4 2.49064888 3.68707555 0 3 C0 2.01 0 1.02 0 0 Z " fill="#141414" transform="translate(659,311)"/>
<path d="M0 0 C3.375 -0.125 3.375 -0.125 7 0 C7.66 0.66 8.32 1.32 9 2 C6.69 2.33 4.38 2.66 2 3 C1.34 2.01 0.68 1.02 0 0 Z " fill="#040404" transform="translate(356,683)"/>
<path d="M0 0 C-0.33 0.99 -0.66 1.98 -1 3 C-2.98 3.33 -4.96 3.66 -7 4 C-6.67 3.01 -6.34 2.02 -6 1 C-4 0 -4 0 0 0 Z " fill="#101010" transform="translate(606,671)"/>
<path d="M0 0 C2.46278801 2.46278801 2.99771255 4.70676982 4 8 C2.68 7.67 1.36 7.34 0 7 C-0.38133299 5.0085944 -0.71325582 3.00720923 -1 1 C-0.67 0.67 -0.34 0.34 0 0 Z " fill="#CDCDCD" transform="translate(486,664)"/>
<path d="M0 0 C0.99 0.33 1.98 0.66 3 1 C1.60667426 4.36720387 0.0210714 5.9859524 -3 8 C-1.125 2.25 -1.125 2.25 0 0 Z " fill="#D3D3D3" transform="translate(676,595)"/>
<path d="M0 0 C2.64 0.33 5.28 0.66 8 1 C7.360625 1.103125 6.72125 1.20625 6.0625 1.3125 C5.0415625 1.6528125 5.0415625 1.6528125 4 2 C3.67 2.99 3.34 3.98 3 5 C2.01 4.34 1.02 3.68 0 3 C0 2.01 0 1.02 0 0 Z " fill="#58595B" transform="translate(668,424)"/>
<path d="M0 0 C0.33 0 0.66 0 1 0 C1.34833144 4.87664009 0.41685712 7.77050005 -2 12 C-3.12377697 8.69564916 -2.89554742 6.9493138 -1.5625 3.75 C-1.27503906 3.04359375 -0.98757813 2.3371875 -0.69140625 1.609375 C-0.46324219 1.07828125 -0.23507812 0.5471875 0 0 Z " fill="#202122" transform="translate(697,643)"/>
<path d="M0 0 C0.99 0 1.98 0 3 0 C2.67 1.65 2.34 3.3 2 5 C0.68 4.67 -0.64 4.34 -2 4 C-1.34 2.68 -0.68 1.36 0 0 Z " fill="#D7D7D7" transform="translate(669,597)"/>
<path d="M0 0 C4.75 1.875 4.75 1.875 7 3 C7 3.66 7 4.32 7 5 C3.31245243 4.50168276 1.39509338 3.89932357 -1 1 C-0.67 0.67 -0.34 0.34 0 0 Z " fill="#565759" transform="translate(660,420)"/>
<path d="M0 0 C2.97 1.98 2.97 1.98 6 4 C3 6 3 6 0.3125 5.625 C-0.450625 5.41875 -1.21375 5.2125 -2 5 C-1.34 4.01 -0.68 3.02 0 2 C0 1.34 0 0.68 0 0 Z " fill="#696A6C" transform="translate(615,376)"/>
<path d="M0 0 C1.98 0.99 1.98 0.99 4 2 C4 2.66 4 3.32 4 4 C4.99 3.67 5.98 3.34 7 3 C6.67 4.32 6.34 5.64 6 7 C3.95880212 5.38405168 1.95927063 3.7143618 0 2 C0 1.34 0 0.68 0 0 Z " fill="#D6D6D8" transform="translate(692,341)"/>
<path d="M0 0 C1.32 0.33 2.64 0.66 4 1 C3.01 2.485 3.01 2.485 2 4 C2.99 4.99 3.98 5.98 5 7 C4.01 7 3.02 7 2 7 C0 5 0 5 -0.125 2.375 C-0.08375 1.59125 -0.0425 0.8075 0 0 Z " fill="#D5D7D7" transform="translate(675,320)"/>
<path d="M0 0 C0.66 0 1.32 0 2 0 C0.70700306 2.88437779 -0.65941363 4.87219421 -3 7 C-3.99 6.67 -4.98 6.34 -6 6 C-5.01 5.67 -4.02 5.34 -3 5 C-3 4.34 -3 3.68 -3 3 C-2.34 3 -1.68 3 -1 3 C-0.67 2.01 -0.34 1.02 0 0 Z " fill="#989898" transform="translate(963,960)"/>
<path d="M0 0 C0.99 0.33 1.98 0.66 3 1 C2.67 1.99 2.34 2.98 2 4 C0.35 4.33 -1.3 4.66 -3 5 C-2.625 3.0625 -2.625 3.0625 -2 1 C-1.34 0.67 -0.68 0.34 0 0 Z " fill="#D0D0D0" transform="translate(371,720)"/>
<path d="M0 0 C0.33 0 0.66 0 1 0 C1.33 2.64 1.66 5.28 2 8 C0.68 8.99 -0.64 9.98 -2 11 C-1.34 7.37 -0.68 3.74 0 0 Z " fill="#353636" transform="translate(689,607)"/>
<path d="M0 0 C0.66 0.66 1.32 1.32 2 2 C1.625 4.125 1.625 4.125 1 6 C0.34 6 -0.32 6 -1 6 C-1.66 4.68 -2.32 3.36 -3 2 C-2.01 1.34 -1.02 0.68 0 0 Z " fill="#CFD1D1" transform="translate(718,609)"/>
<path d="M0 0 C1.65 1.65 3.3 3.3 5 5 C3.0625 5.5625 3.0625 5.5625 1 6 C0 5 0 5 -0.0625 2.4375 C-0.041875 1.633125 -0.02125 0.82875 0 0 Z " fill="#A0A0A0" transform="translate(632,392)"/>
<path d="M0 0 C2.475 0.495 2.475 0.495 5 1 C6.125 4.75 6.125 4.75 5 7 C0 1.125 0 1.125 0 0 Z " fill="#D5D5D7" transform="translate(698,348)"/>
<path d="M0 0 C0.33 0 0.66 0 1 0 C1.33 1.98 1.66 3.96 2 6 C0.35 5.67 -1.3 5.34 -3 5 C-2.03114628 3.31503702 -1.03013277 1.64821244 0 0 Z " fill="#DEDEDE" transform="translate(413,665)"/>
<path d="M0 0 C2 3 2 3 2 6 C0.68 6.33 -0.64 6.66 -2 7 C-2.33 6.01 -2.66 5.02 -3 4 C-1.5625 1.8125 -1.5625 1.8125 0 0 Z " fill="#D7D7D7" transform="translate(654,633)"/>
<path d="M0 0 C0.33 1.32 0.66 2.64 1 4 C0.01 4.66 -0.98 5.32 -2 6 C-2 5.34 -2 4.68 -2 4 C-3.32 4.33 -4.64 4.66 -6 5 C-5.67 4.01 -5.34 3.02 -5 2 C-3.35 2 -1.7 2 0 2 C0 1.34 0 0.68 0 0 Z " fill="#E1E1E1" transform="translate(649,630)"/>
<path d="M0 0 C0.99 0.33 1.98 0.66 3 1 C2.25 2.9375 2.25 2.9375 1 5 C-1.125 5.75 -1.125 5.75 -3 6 C-2.01 4.02 -1.02 2.04 0 0 Z " fill="#D4D4D4" transform="translate(665,617)"/>
<path d="M0 0 C2.35171131 0.59861742 4.6859378 1.26924352 7 2 C7.33 2.66 7.66 3.32 8 4 C7.34 4.66 6.68 5.32 6 6 C3.97945196 4.35830472 1.97956942 2.69088222 0 1 C0 0.67 0 0.34 0 0 Z " fill="#A0A1A1" transform="translate(382,382)"/>
<path d="M0 0 C1.98 0.66 3.96 1.32 6 2 C5.67 2.66 5.34 3.32 5 4 C3.02 4 1.04 4 -1 4 C-0.67 2.68 -0.34 1.36 0 0 Z " fill="#111111" transform="translate(602,346)"/>
</svg>
